<?xml version="1.0" encoding="utf-8" standalone="no"?>
<!DOCTYPE svg PUBLIC "-//W3C//DTD SVG 1.1//EN"
  "http://www.w3.org/Graphics/SVG/1.1/DTD/svg11.dtd">
<svg xmlns:xlink="http://www.w3.org/1999/xlink" width="460.8pt" height="345.6pt" viewBox="0 0 460.8 345.6" xmlns="http://www.w3.org/2000/svg" version="1.1">
 <metadata>
  <rdf:RDF xmlns:dc="http://purl.org/dc/elements/1.1/" xmlns:cc="http://creativecommons.org/ns#" xmlns:rdf="http://www.w3.org/1999/02/22-rdf-syntax-ns#">
   <cc:Work>
    <dc:type rdf:resource="http://purl.org/dc/dcmitype/StillImage"/>
    <dc:date>2022-12-21T15:06:23.021222</dc:date>
    <dc:format>image/svg+xml</dc:format>
    <dc:creator>
     <cc:Agent>
      <dc:title>Matplotlib v3.6.2, https://matplotlib.org/</dc:title>
     </cc:Agent>
    </dc:creator>
   </cc:Work>
  </rdf:RDF>
 </metadata>
 <defs>
  <style type="text/css">*{stroke-linejoin: round; stroke-linecap: butt}</style>
 </defs>
 <g id="figure_1">
  <g id="patch_1">
   <path d="M 0 345.6 
L 460.8 345.6 
L 460.8 0 
L 0 0 
z
" style="fill: #ffffff"/>
  </g>
  <g id="axes_1">
   <g id="patch_2">
    <path d="M 57.6 307.584 
L 414.72 307.584 
L 414.72 41.472 
L 57.6 41.472 
z
" style="fill: #ffffff"/>
   </g>
   <g id="matplotlib.axis_1">
    <g id="xtick_1">
     <g id="line2d_1">
      <defs>
       <path id="m78a020d867" d="M 0 0 
L 0 3.5 
" style="stroke: #000000; stroke-width: 0.8"/>
      </defs>
      <g>
       <use xlink:href="#m78a020d867" x="73.832727" y="307.584" style="stroke: #000000; stroke-width: 0.8"/>
      </g>
     </g>
     <g id="text_1">
      <!-- 0 -->
      <g transform="translate(70.651477 322.182437) scale(0.1 -0.1)">
       <defs>
        <path id="DejaVuSans-30" d="M 2034 4250 
Q 1547 4250 1301 3770 
Q 1056 3291 1056 2328 
Q 1056 1369 1301 889 
Q 1547 409 2034 409 
Q 2525 409 2770 889 
Q 3016 1369 3016 2328 
Q 3016 3291 2770 3770 
Q 2525 4250 2034 4250 
z
M 2034 4750 
Q 2819 4750 3233 4129 
Q 3647 3509 3647 2328 
Q 3647 1150 3233 529 
Q 2819 -91 2034 -91 
Q 1250 -91 836 529 
Q 422 1150 422 2328 
Q 422 3509 836 4129 
Q 1250 4750 2034 4750 
z
" transform="scale(0.015625)"/>
       </defs>
       <use xlink:href="#DejaVuSans-30"/>
      </g>
     </g>
    </g>
    <g id="xtick_2">
     <g id="line2d_2">
      <g>
       <use xlink:href="#m78a020d867" x="146.788805" y="307.584" style="stroke: #000000; stroke-width: 0.8"/>
      </g>
     </g>
     <g id="text_2">
      <!-- 100 -->
      <g transform="translate(137.245055 322.182437) scale(0.1 -0.1)">
       <defs>
        <path id="DejaVuSans-31" d="M 794 531 
L 1825 531 
L 1825 4091 
L 703 3866 
L 703 4441 
L 1819 4666 
L 2450 4666 
L 2450 531 
L 3481 531 
L 3481 0 
L 794 0 
L 794 531 
z
" transform="scale(0.015625)"/>
       </defs>
       <use xlink:href="#DejaVuSans-31"/>
       <use xlink:href="#DejaVuSans-30" x="63.623047"/>
       <use xlink:href="#DejaVuSans-30" x="127.246094"/>
      </g>
     </g>
    </g>
    <g id="xtick_3">
     <g id="line2d_3">
      <g>
       <use xlink:href="#m78a020d867" x="219.744883" y="307.584" style="stroke: #000000; stroke-width: 0.8"/>
      </g>
     </g>
     <g id="text_3">
      <!-- 200 -->
      <g transform="translate(210.201133 322.182437) scale(0.1 -0.1)">
       <defs>
        <path id="DejaVuSans-32" d="M 1228 531 
L 3431 531 
L 3431 0 
L 469 0 
L 469 531 
Q 828 903 1448 1529 
Q 2069 2156 2228 2338 
Q 2531 2678 2651 2914 
Q 2772 3150 2772 3378 
Q 2772 3750 2511 3984 
Q 2250 4219 1831 4219 
Q 1534 4219 1204 4116 
Q 875 4013 500 3803 
L 500 4441 
Q 881 4594 1212 4672 
Q 1544 4750 1819 4750 
Q 2544 4750 2975 4387 
Q 3406 4025 3406 3419 
Q 3406 3131 3298 2873 
Q 3191 2616 2906 2266 
Q 2828 2175 2409 1742 
Q 1991 1309 1228 531 
z
" transform="scale(0.015625)"/>
       </defs>
       <use xlink:href="#DejaVuSans-32"/>
       <use xlink:href="#DejaVuSans-30" x="63.623047"/>
       <use xlink:href="#DejaVuSans-30" x="127.246094"/>
      </g>
     </g>
    </g>
    <g id="xtick_4">
     <g id="line2d_4">
      <g>
       <use xlink:href="#m78a020d867" x="292.70096" y="307.584" style="stroke: #000000; stroke-width: 0.8"/>
      </g>
     </g>
     <g id="text_4">
      <!-- 300 -->
      <g transform="translate(283.15721 322.182437) scale(0.1 -0.1)">
       <defs>
        <path id="DejaVuSans-33" d="M 2597 2516 
Q 3050 2419 3304 2112 
Q 3559 1806 3559 1356 
Q 3559 666 3084 287 
Q 2609 -91 1734 -91 
Q 1441 -91 1130 -33 
Q 819 25 488 141 
L 488 750 
Q 750 597 1062 519 
Q 1375 441 1716 441 
Q 2309 441 2620 675 
Q 2931 909 2931 1356 
Q 2931 1769 2642 2001 
Q 2353 2234 1838 2234 
L 1294 2234 
L 1294 2753 
L 1863 2753 
Q 2328 2753 2575 2939 
Q 2822 3125 2822 3475 
Q 2822 3834 2567 4026 
Q 2313 4219 1838 4219 
Q 1578 4219 1281 4162 
Q 984 4106 628 3988 
L 628 4550 
Q 988 4650 1302 4700 
Q 1616 4750 1894 4750 
Q 2613 4750 3031 4423 
Q 3450 4097 3450 3541 
Q 3450 3153 3228 2886 
Q 3006 2619 2597 2516 
z
" transform="scale(0.015625)"/>
       </defs>
       <use xlink:href="#DejaVuSans-33"/>
       <use xlink:href="#DejaVuSans-30" x="63.623047"/>
       <use xlink:href="#DejaVuSans-30" x="127.246094"/>
      </g>
     </g>
    </g>
    <g id="xtick_5">
     <g id="line2d_5">
      <g>
       <use xlink:href="#m78a020d867" x="365.657038" y="307.584" style="stroke: #000000; stroke-width: 0.8"/>
      </g>
     </g>
     <g id="text_5">
      <!-- 400 -->
      <g transform="translate(356.113288 322.182437) scale(0.1 -0.1)">
       <defs>
        <path id="DejaVuSans-34" d="M 2419 4116 
L 825 1625 
L 2419 1625 
L 2419 4116 
z
M 2253 4666 
L 3047 4666 
L 3047 1625 
L 3713 1625 
L 3713 1100 
L 3047 1100 
L 3047 0 
L 2419 0 
L 2419 1100 
L 313 1100 
L 313 1709 
L 2253 4666 
z
" transform="scale(0.015625)"/>
       </defs>
       <use xlink:href="#DejaVuSans-34"/>
       <use xlink:href="#DejaVuSans-30" x="63.623047"/>
       <use xlink:href="#DejaVuSans-30" x="127.246094"/>
      </g>
     </g>
    </g>
   </g>
   <g id="matplotlib.axis_2">
    <g id="ytick_1">
     <g id="line2d_6">
      <defs>
       <path id="m03f8748d76" d="M 0 0 
L -3.5 0 
" style="stroke: #000000; stroke-width: 0.8"/>
      </defs>
      <g>
       <use xlink:href="#m03f8748d76" x="57.6" y="280.79356" style="stroke: #000000; stroke-width: 0.8"/>
      </g>
     </g>
     <g id="text_6">
      <!-- 1 -->
      <g transform="translate(44.2375 284.592779) scale(0.1 -0.1)">
       <use xlink:href="#DejaVuSans-31"/>
      </g>
     </g>
    </g>
    <g id="ytick_2">
     <g id="line2d_7">
      <g>
       <use xlink:href="#m03f8748d76" x="57.6" y="248.498088" style="stroke: #000000; stroke-width: 0.8"/>
      </g>
     </g>
     <g id="text_7">
      <!-- 2 -->
      <g transform="translate(44.2375 252.297307) scale(0.1 -0.1)">
       <use xlink:href="#DejaVuSans-32"/>
      </g>
     </g>
    </g>
    <g id="ytick_3">
     <g id="line2d_8">
      <g>
       <use xlink:href="#m03f8748d76" x="57.6" y="216.202616" style="stroke: #000000; stroke-width: 0.8"/>
      </g>
     </g>
     <g id="text_8">
      <!-- 3 -->
      <g transform="translate(44.2375 220.001834) scale(0.1 -0.1)">
       <use xlink:href="#DejaVuSans-33"/>
      </g>
     </g>
    </g>
    <g id="ytick_4">
     <g id="line2d_9">
      <g>
       <use xlink:href="#m03f8748d76" x="57.6" y="183.907143" style="stroke: #000000; stroke-width: 0.8"/>
      </g>
     </g>
     <g id="text_9">
      <!-- 4 -->
      <g transform="translate(44.2375 187.706362) scale(0.1 -0.1)">
       <use xlink:href="#DejaVuSans-34"/>
      </g>
     </g>
    </g>
    <g id="ytick_5">
     <g id="line2d_10">
      <g>
       <use xlink:href="#m03f8748d76" x="57.6" y="151.611671" style="stroke: #000000; stroke-width: 0.8"/>
      </g>
     </g>
     <g id="text_10">
      <!-- 5 -->
      <g transform="translate(44.2375 155.41089) scale(0.1 -0.1)">
       <defs>
        <path id="DejaVuSans-35" d="M 691 4666 
L 3169 4666 
L 3169 4134 
L 1269 4134 
L 1269 2991 
Q 1406 3038 1543 3061 
Q 1681 3084 1819 3084 
Q 2600 3084 3056 2656 
Q 3513 2228 3513 1497 
Q 3513 744 3044 326 
Q 2575 -91 1722 -91 
Q 1428 -91 1123 -41 
Q 819 9 494 109 
L 494 744 
Q 775 591 1075 516 
Q 1375 441 1709 441 
Q 2250 441 2565 725 
Q 2881 1009 2881 1497 
Q 2881 1984 2565 2268 
Q 2250 2553 1709 2553 
Q 1456 2553 1204 2497 
Q 953 2441 691 2322 
L 691 4666 
z
" transform="scale(0.015625)"/>
       </defs>
       <use xlink:href="#DejaVuSans-35"/>
      </g>
     </g>
    </g>
    <g id="ytick_6">
     <g id="line2d_11">
      <g>
       <use xlink:href="#m03f8748d76" x="57.6" y="119.316199" style="stroke: #000000; stroke-width: 0.8"/>
      </g>
     </g>
     <g id="text_11">
      <!-- 6 -->
      <g transform="translate(44.2375 123.115418) scale(0.1 -0.1)">
       <defs>
        <path id="DejaVuSans-36" d="M 2113 2584 
Q 1688 2584 1439 2293 
Q 1191 2003 1191 1497 
Q 1191 994 1439 701 
Q 1688 409 2113 409 
Q 2538 409 2786 701 
Q 3034 994 3034 1497 
Q 3034 2003 2786 2293 
Q 2538 2584 2113 2584 
z
M 3366 4563 
L 3366 3988 
Q 3128 4100 2886 4159 
Q 2644 4219 2406 4219 
Q 1781 4219 1451 3797 
Q 1122 3375 1075 2522 
Q 1259 2794 1537 2939 
Q 1816 3084 2150 3084 
Q 2853 3084 3261 2657 
Q 3669 2231 3669 1497 
Q 3669 778 3244 343 
Q 2819 -91 2113 -91 
Q 1303 -91 875 529 
Q 447 1150 447 2328 
Q 447 3434 972 4092 
Q 1497 4750 2381 4750 
Q 2619 4750 2861 4703 
Q 3103 4656 3366 4563 
z
" transform="scale(0.015625)"/>
       </defs>
       <use xlink:href="#DejaVuSans-36"/>
      </g>
     </g>
    </g>
    <g id="ytick_7">
     <g id="line2d_12">
      <g>
       <use xlink:href="#m03f8748d76" x="57.6" y="87.020727" style="stroke: #000000; stroke-width: 0.8"/>
      </g>
     </g>
     <g id="text_12">
      <!-- 7 -->
      <g transform="translate(44.2375 90.819945) scale(0.1 -0.1)">
       <defs>
        <path id="DejaVuSans-37" d="M 525 4666 
L 3525 4666 
L 3525 4397 
L 1831 0 
L 1172 0 
L 2766 4134 
L 525 4134 
L 525 4666 
z
" transform="scale(0.015625)"/>
       </defs>
       <use xlink:href="#DejaVuSans-37"/>
      </g>
     </g>
    </g>
    <g id="ytick_8">
     <g id="line2d_13">
      <g>
       <use xlink:href="#m03f8748d76" x="57.6" y="54.725254" style="stroke: #000000; stroke-width: 0.8"/>
      </g>
     </g>
     <g id="text_13">
      <!-- 8 -->
      <g transform="translate(44.2375 58.524473) scale(0.1 -0.1)">
       <defs>
        <path id="DejaVuSans-38" d="M 2034 2216 
Q 1584 2216 1326 1975 
Q 1069 1734 1069 1313 
Q 1069 891 1326 650 
Q 1584 409 2034 409 
Q 2484 409 2743 651 
Q 3003 894 3003 1313 
Q 3003 1734 2745 1975 
Q 2488 2216 2034 2216 
z
M 1403 2484 
Q 997 2584 770 2862 
Q 544 3141 544 3541 
Q 544 4100 942 4425 
Q 1341 4750 2034 4750 
Q 2731 4750 3128 4425 
Q 3525 4100 3525 3541 
Q 3525 3141 3298 2862 
Q 3072 2584 2669 2484 
Q 3125 2378 3379 2068 
Q 3634 1759 3634 1313 
Q 3634 634 3220 271 
Q 2806 -91 2034 -91 
Q 1263 -91 848 271 
Q 434 634 434 1313 
Q 434 1759 690 2068 
Q 947 2378 1403 2484 
z
M 1172 3481 
Q 1172 3119 1398 2916 
Q 1625 2713 2034 2713 
Q 2441 2713 2670 2916 
Q 2900 3119 2900 3481 
Q 2900 3844 2670 4047 
Q 2441 4250 2034 4250 
Q 1625 4250 1398 4047 
Q 1172 3844 1172 3481 
z
" transform="scale(0.015625)"/>
       </defs>
       <use xlink:href="#DejaVuSans-38"/>
      </g>
     </g>
    </g>
   </g>
   <g id="line2d_14">
    <path d="M 73.832727 280.134194 
L 74.562288 268.077218 
L 75.291849 278.613616 
L 76.02141 212.865417 
L 76.75097 186.006349 
L 77.480531 177.609526 
L 78.210092 161.2734 
L 78.939653 183.153582 
L 79.669213 223.07886 
L 80.398774 165.471811 
L 81.128335 219.526358 
L 81.857896 235.606812 
L 82.587457 230.466449 
L 83.317017 215.341403 
L 84.046578 208.61318 
L 84.776139 212.407898 
L 85.5057 239.77831 
L 86.23526 254.311273 
L 86.964821 272.262173 
L 87.694382 238.701795 
L 88.423943 198.534301 
L 89.883064 169.549115 
L 90.612625 187.796057 
L 91.342186 223.321076 
L 92.071747 235.49916 
L 92.801307 160.681316 
L 93.530868 156.20032 
L 94.260429 204.078357 
L 94.98999 213.780455 
L 95.719551 203.096036 
L 96.449111 182.548042 
L 97.178672 180.273903 
L 97.908233 157.82855 
L 98.637794 191.752252 
L 100.096915 222.702079 
L 100.826476 258.496228 
L 101.556037 218.517124 
L 102.285598 232.525286 
L 103.015158 252.42737 
L 103.744719 253.463517 
L 104.47428 215.92003 
L 105.203841 241.164324 
L 105.933401 225.097327 
L 106.662962 232.606024 
L 107.392523 238.311558 
L 108.122084 195.789186 
L 108.851645 211.748532 
L 109.581205 244.09783 
L 110.310766 264.349782 
L 111.040327 195.210559 
L 111.769888 218.140344 
L 112.499448 228.407613 
L 113.229009 198.937994 
L 113.95857 217.413696 
L 114.688131 198.843799 
L 115.417692 184.539596 
L 116.147252 210.093389 
M 117.606374 93.97771 
L 119.065495 210.281779 
L 119.795056 222.042714 
L 120.524617 220.01079 
L 121.254178 238.930554 
L 121.983739 186.961757 
L 122.713299 158.366807 
L 123.44286 168.351491 
L 124.901982 223.778595 
L 125.631542 206.298671 
L 126.361103 185.831415 
L 127.820225 245.187802 
L 129.279346 211.694706 
L 130.008907 239.038206 
L 130.738468 277.321797 
L 131.468029 252.185154 
L 132.197589 214.856971 
L 132.92715 205.329807 
L 133.656711 186.060175 
L 134.386272 187.015583 
L 135.115832 225.137696 
L 135.845393 241.487279 
L 136.574954 190.285499 
L 137.304515 165.027749 
L 138.034076 149.566291 
L 138.763636 131.440457 
L 139.493197 125.681098 
L 140.222758 143.524347 
L 140.952319 127.134394 
L 141.681879 137.859183 
M 143.141001 53.568 
L 143.870562 152.378689 
L 144.600123 213.659347 
L 145.329683 230.049299 
L 146.059244 232.982805 
L 146.788805 181.807938 
L 147.518366 152.809295 
L 148.247926 221.585194 
L 148.977487 249.547691 
L 149.707048 236.360373 
L 150.436609 238.634512 
L 151.16617 237.423432 
L 151.89573 231.368031 
M 153.354852 122.236248 
L 154.084413 151.477107 
L 154.813973 146.646242 
L 156.273095 261.174061 
L 157.002656 229.134261 
L 158.461777 246.493077 
L 159.191338 228.838219 
L 159.920899 228.555634 
L 160.65046 263.07142 
L 161.38002 281.116515 
L 162.109581 275.976152 
L 162.839142 276.635518 
L 163.568703 275.424438 
L 164.298264 178.564934 
L 165.027824 167.745951 
L 165.757385 235.445335 
L 166.486946 177.394223 
L 167.216507 190.20476 
L 167.946067 215.381772 
L 168.675628 196.421639 
L 169.405189 182.171262 
L 170.13475 193.380482 
L 170.864311 211.883096 
L 171.593871 95.579027 
L 172.323432 89.442887 
L 173.052993 181.848307 
L 173.782554 186.275478 
L 174.512114 163.103477 
L 175.241675 198.211346 
L 175.971236 147.467086 
L 176.700797 149.87579 
L 177.430358 161.233031 
L 178.159918 188.643813 
L 178.889479 224.666721 
L 179.61904 190.985234 
L 180.348601 185.791046 
L 181.078161 184.243555 
L 181.807722 204.159096 
L 182.537283 199.099472 
L 183.266844 250.153231 
L 183.996404 243.196248 
L 184.725965 177.797917 
L 185.455526 221.464086 
L 186.185087 201.696566 
L 186.914648 234.045864 
L 187.644208 255.132116 
L 188.373769 259.922611 
L 189.10333 266.395162 
L 189.832891 243.936352 
L 191.292012 256.477761 
L 192.021573 257.527364 
L 192.751134 231.610247 
L 193.480695 246.264318 
L 194.210255 225.110783 
L 194.939816 237.383063 
L 195.669377 202.598148 
L 196.398938 144.923817 
L 197.128498 169.697136 
L 197.858059 131.615391 
L 198.58762 196.287074 
L 199.317181 232.969348 
L 200.046742 233.776735 
L 200.776302 239.468812 
L 201.505863 273.580905 
L 202.235424 274.213358 
L 202.964985 264.09411 
L 203.694545 258.415489 
L 204.424106 245.30891 
L 205.153667 261.564298 
L 205.883228 235.162749 
L 206.612789 220.683612 
L 208.07191 256.114437 
L 208.801471 244.797565 
L 209.531032 258.765357 
L 210.260592 265.641601 
L 210.990153 218.463299 
L 211.719714 227.263815 
L 212.449275 246.546903 
L 213.178836 262.613901 
L 213.908396 238.176993 
L 214.637957 239.885962 
L 215.367518 268.023392 
L 216.097079 265.883817 
L 216.826639 250.368534 
L 217.5562 271.791197 
L 218.285761 259.155594 
L 219.015322 256.423935 
L 219.744883 275.007288 
L 220.474443 244.985955 
L 221.204004 250.812597 
L 221.933565 240.989391 
L 222.663126 234.166972 
L 223.392686 194.214782 
L 224.122247 188.105555 
L 224.851808 255.697287 
L 225.581369 257.029475 
L 226.31093 241.716039 
L 227.04049 244.447697 
L 227.770051 198.80343 
L 228.499612 215.745096 
L 229.229173 260.124458 
L 229.958733 210.604734 
L 230.688294 213.201828 
L 231.417855 239.58992 
L 232.147416 239.078575 
L 233.606537 176.95016 
L 234.336098 242.779098 
L 235.065659 267.041072 
L 235.79522 272.410194 
L 236.52478 276.595149 
L 237.254341 284.453714 
L 237.983902 268.602019 
L 238.713463 263.313636 
L 239.443023 271.037636 
L 240.172584 261.133691 
L 240.902145 248.296241 
L 241.631706 268.157957 
L 242.361267 245.443474 
L 243.090827 189.962544 
L 243.820388 178.659129 
L 244.549949 203.365165 
L 245.27951 246.318144 
L 246.00907 259.693852 
L 246.738631 229.618693 
L 247.468192 267.888828 
L 248.197753 263.973002 
L 248.927314 261.348995 
L 249.656874 255.926047 
L 250.386435 257.54082 
L 251.115996 288.705951 
L 251.845557 285.395665 
L 252.575117 288.800146 
L 253.304678 294.034704 
L 254.034239 294.317289 
L 255.493361 250.920248 
L 256.952482 276.029978 
L 257.682043 253.275126 
L 258.411604 250.906792 
L 259.141164 284.224954 
L 259.870725 277.241058 
L 260.600286 266.206772 
L 261.329847 241.379628 
L 262.059408 246.950597 
L 262.788968 231.152728 
L 263.518529 244.447697 
L 264.24809 242.617621 
L 264.977651 234.436101 
L 265.707211 264.820758 
L 266.436772 267.390939 
L 267.166333 234.799425 
L 267.895894 245.766429 
L 268.625455 224.70709 
L 269.355015 229.376477 
L 270.084576 207.698141 
L 270.814137 264.255587 
L 271.543698 271.616263 
L 272.273258 251.175921 
L 273.002819 226.281494 
L 274.461941 254.042144 
L 275.191502 271.831567 
L 275.921062 280.161107 
L 276.650623 253.530799 
L 277.380184 271.602807 
L 278.109745 283.753978 
L 278.839305 267.902284 
L 279.568866 240.827913 
L 281.027988 274.643964 
L 281.757549 249.318931 
L 282.487109 264.134479 
L 283.21667 215.327947 
L 283.946231 186.598433 
L 284.675792 225.110783 
L 285.405352 253.127106 
L 286.864474 289.607533 
L 287.594035 262.640813 
L 288.323596 256.787259 
L 289.782717 165.36416 
L 290.512278 227.317641 
L 291.241839 244.299676 
L 291.971399 273.271406 
L 292.70096 283.229177 
L 293.430521 248.995976 
L 294.160082 252.198611 
L 294.889642 264.766932 
L 295.619203 273.392514 
L 296.348764 262.183294 
L 297.078325 234.960902 
L 297.807886 239.441899 
L 298.537446 270.055316 
L 299.267007 284.359519 
L 299.996568 288.921254 
L 300.726129 264.726563 
L 301.455689 258.33475 
L 302.914811 241.473823 
L 303.644372 241.6353 
L 304.373933 253.167475 
L 305.103493 241.594931 
L 305.833054 217.063828 
L 306.562615 236.992826 
L 308.021736 257.567733 
L 308.751297 276.379846 
L 309.480858 277.886968 
L 310.210419 283.054243 
L 310.93998 279.098048 
L 311.66954 276.13763 
L 312.399101 270.216793 
L 313.128662 273.998055 
L 314.587783 295.488 
L 315.317344 274.455574 
L 316.046905 248.121307 
L 316.776466 244.05746 
L 317.506027 246.70838 
L 318.235587 233.776735 
L 318.965148 234.422645 
L 319.694709 191.402384 
L 320.42427 228.178853 
L 321.15383 255.858764 
L 321.883391 248.282785 
L 322.612952 249.749537 
L 323.342513 279.421003 
L 324.072074 274.307553 
L 324.801634 236.346916 
L 325.531195 212.609744 
L 326.260756 246.129753 
L 326.990317 237.54454 
L 327.719877 234.543753 
L 328.449438 273.231037 
L 329.178999 278.653985 
L 329.90856 258.873008 
L 330.638121 261.645036 
L 331.367681 251.579614 
L 332.097242 269.005713 
L 332.826803 278.021532 
L 333.556364 291.141568 
L 335.015485 217.090741 
L 335.745046 191.846447 
L 336.474607 205.720044 
L 337.204168 231.906289 
L 337.933728 252.481196 
L 338.663289 249.81682 
L 339.39285 251.122095 
L 340.122411 270.929985 
L 340.851971 263.354005 
L 341.581532 249.830276 
L 342.311093 264.134479 
L 343.040654 275.989609 
L 343.770215 275.155309 
L 344.499775 277.631295 
L 345.229336 284.251867 
L 345.958897 288.181149 
L 346.688458 257.231322 
L 347.418018 199.678099 
L 348.87714 226.52371 
L 349.606701 223.442184 
L 350.336261 207.294448 
L 351.065822 198.870712 
L 351.795383 225.043501 
L 352.524944 200.310552 
L 353.254505 180.798704 
L 353.984065 211.761988 
L 354.713626 226.887034 
L 355.443187 249.278562 
L 356.172748 237.54454 
L 356.902308 250.664576 
L 357.631869 243.048227 
L 359.090991 194.914517 
L 359.820552 219.674379 
L 360.550112 183.651471 
L 361.279673 172.71138 
L 362.009234 192.034837 
L 362.738795 185.387353 
L 363.468355 137.065252 
L 364.197916 168.782097 
L 364.927477 167.140411 
L 365.657038 170.329589 
L 366.386599 167.342257 
L 367.116159 163.762843 
L 367.84572 191.981011 
L 368.575281 213.793912 
L 369.304842 169.60294 
L 370.034402 230.829773 
L 370.763963 248.847956 
L 371.493524 225.218435 
L 372.223085 188.495792 
L 372.952646 232.094679 
L 373.682206 218.624776 
L 374.411767 147.023023 
L 375.141328 108.268456 
L 375.870889 139.635434 
L 376.600449 182.413478 
L 377.33001 169.898982 
L 378.059571 191.819534 
L 378.789132 194.981799 
L 379.518693 87.828113 
L 380.248253 114.633355 
L 380.977814 169.468376 
L 381.707375 149.929615 
L 382.436936 159.658626 
L 383.166496 174.837498 
L 383.896057 193.219005 
L 384.625618 203.822685 
L 385.355179 226.698644 
L 386.08474 200.700789 
L 386.8143 187.796057 
L 387.543861 157.088445 
L 388.273422 180.24699 
L 389.002983 198.722691 
L 389.732543 141.08873 
L 390.462104 152.822751 
L 391.191665 170.921672 
L 391.921226 148.610884 
L 392.650787 117.23045 
L 393.380347 123.985586 
L 394.109908 165.175769 
L 394.839469 139.796911 
L 395.56903 189.935632 
L 396.29859 170.773651 
L 397.028151 155.164173 
L 397.757712 54.213909 
L 398.487273 107.501439 
L 398.487273 107.501439 
" clip-path="url(#p0bc83e79d4)" style="fill: none; stroke: #1f77b4; stroke-width: 1.5; stroke-linecap: square"/>
   </g>
   <g id="patch_3">
    <path d="M 57.6 307.584 
L 57.6 41.472 
" style="fill: none; stroke: #000000; stroke-width: 0.8; stroke-linejoin: miter; stroke-linecap: square"/>
   </g>
   <g id="patch_4">
    <path d="M 414.72 307.584 
L 414.72 41.472 
" style="fill: none; stroke: #000000; stroke-width: 0.8; stroke-linejoin: miter; stroke-linecap: square"/>
   </g>
   <g id="patch_5">
    <path d="M 57.6 307.584 
L 414.72 307.584 
" style="fill: none; stroke: #000000; stroke-width: 0.8; stroke-linejoin: miter; stroke-linecap: square"/>
   </g>
   <g id="patch_6">
    <path d="M 57.6 41.472 
L 414.72 41.472 
" style="fill: none; stroke: #000000; stroke-width: 0.8; stroke-linejoin: miter; stroke-linecap: square"/>
   </g>
  </g>
 </g>
 <defs>
  <clipPath id="p0bc83e79d4">
   <rect x="57.6" y="41.472" width="357.12" height="266.112"/>
  </clipPath>
 </defs>
</svg>
