<?xml version="1.0" encoding="utf-8" standalone="no"?>
<!DOCTYPE svg PUBLIC "-//W3C//DTD SVG 1.1//EN"
  "http://www.w3.org/Graphics/SVG/1.1/DTD/svg11.dtd">
<svg xmlns:xlink="http://www.w3.org/1999/xlink" width="460.8pt" height="345.6pt" viewBox="0 0 460.8 345.6" xmlns="http://www.w3.org/2000/svg" version="1.1">
 <metadata>
  <rdf:RDF xmlns:dc="http://purl.org/dc/elements/1.1/" xmlns:cc="http://creativecommons.org/ns#" xmlns:rdf="http://www.w3.org/1999/02/22-rdf-syntax-ns#">
   <cc:Work>
    <dc:type rdf:resource="http://purl.org/dc/dcmitype/StillImage"/>
    <dc:date>2022-12-21T15:08:00.398690</dc:date>
    <dc:format>image/svg+xml</dc:format>
    <dc:creator>
     <cc:Agent>
      <dc:title>Matplotlib v3.6.2, https://matplotlib.org/</dc:title>
     </cc:Agent>
    </dc:creator>
   </cc:Work>
  </rdf:RDF>
 </metadata>
 <defs>
  <style type="text/css">*{stroke-linejoin: round; stroke-linecap: butt}</style>
 </defs>
 <g id="figure_1">
  <g id="patch_1">
   <path d="M 0 345.6 
L 460.8 345.6 
L 460.8 0 
L 0 0 
z
" style="fill: #ffffff"/>
  </g>
  <g id="axes_1">
   <g id="patch_2">
    <path d="M 57.6 307.584 
L 414.72 307.584 
L 414.72 41.472 
L 57.6 41.472 
z
" style="fill: #ffffff"/>
   </g>
   <g id="matplotlib.axis_1">
    <g id="xtick_1">
     <g id="line2d_1">
      <defs>
       <path id="m733bcb9468" d="M 0 0 
L 0 3.5 
" style="stroke: #000000; stroke-width: 0.8"/>
      </defs>
      <g>
       <use xlink:href="#m733bcb9468" x="73.832727" y="307.584" style="stroke: #000000; stroke-width: 0.8"/>
      </g>
     </g>
     <g id="text_1">
      <!-- 0 -->
      <g transform="translate(70.651477 322.182437) scale(0.1 -0.1)">
       <defs>
        <path id="DejaVuSans-30" d="M 2034 4250 
Q 1547 4250 1301 3770 
Q 1056 3291 1056 2328 
Q 1056 1369 1301 889 
Q 1547 409 2034 409 
Q 2525 409 2770 889 
Q 3016 1369 3016 2328 
Q 3016 3291 2770 3770 
Q 2525 4250 2034 4250 
z
M 2034 4750 
Q 2819 4750 3233 4129 
Q 3647 3509 3647 2328 
Q 3647 1150 3233 529 
Q 2819 -91 2034 -91 
Q 1250 -91 836 529 
Q 422 1150 422 2328 
Q 422 3509 836 4129 
Q 1250 4750 2034 4750 
z
" transform="scale(0.015625)"/>
       </defs>
       <use xlink:href="#DejaVuSans-30"/>
      </g>
     </g>
    </g>
    <g id="xtick_2">
     <g id="line2d_2">
      <g>
       <use xlink:href="#m733bcb9468" x="146.788805" y="307.584" style="stroke: #000000; stroke-width: 0.8"/>
      </g>
     </g>
     <g id="text_2">
      <!-- 100 -->
      <g transform="translate(137.245055 322.182437) scale(0.1 -0.1)">
       <defs>
        <path id="DejaVuSans-31" d="M 794 531 
L 1825 531 
L 1825 4091 
L 703 3866 
L 703 4441 
L 1819 4666 
L 2450 4666 
L 2450 531 
L 3481 531 
L 3481 0 
L 794 0 
L 794 531 
z
" transform="scale(0.015625)"/>
       </defs>
       <use xlink:href="#DejaVuSans-31"/>
       <use xlink:href="#DejaVuSans-30" x="63.623047"/>
       <use xlink:href="#DejaVuSans-30" x="127.246094"/>
      </g>
     </g>
    </g>
    <g id="xtick_3">
     <g id="line2d_3">
      <g>
       <use xlink:href="#m733bcb9468" x="219.744883" y="307.584" style="stroke: #000000; stroke-width: 0.8"/>
      </g>
     </g>
     <g id="text_3">
      <!-- 200 -->
      <g transform="translate(210.201133 322.182437) scale(0.1 -0.1)">
       <defs>
        <path id="DejaVuSans-32" d="M 1228 531 
L 3431 531 
L 3431 0 
L 469 0 
L 469 531 
Q 828 903 1448 1529 
Q 2069 2156 2228 2338 
Q 2531 2678 2651 2914 
Q 2772 3150 2772 3378 
Q 2772 3750 2511 3984 
Q 2250 4219 1831 4219 
Q 1534 4219 1204 4116 
Q 875 4013 500 3803 
L 500 4441 
Q 881 4594 1212 4672 
Q 1544 4750 1819 4750 
Q 2544 4750 2975 4387 
Q 3406 4025 3406 3419 
Q 3406 3131 3298 2873 
Q 3191 2616 2906 2266 
Q 2828 2175 2409 1742 
Q 1991 1309 1228 531 
z
" transform="scale(0.015625)"/>
       </defs>
       <use xlink:href="#DejaVuSans-32"/>
       <use xlink:href="#DejaVuSans-30" x="63.623047"/>
       <use xlink:href="#DejaVuSans-30" x="127.246094"/>
      </g>
     </g>
    </g>
    <g id="xtick_4">
     <g id="line2d_4">
      <g>
       <use xlink:href="#m733bcb9468" x="292.70096" y="307.584" style="stroke: #000000; stroke-width: 0.8"/>
      </g>
     </g>
     <g id="text_4">
      <!-- 300 -->
      <g transform="translate(283.15721 322.182437) scale(0.1 -0.1)">
       <defs>
        <path id="DejaVuSans-33" d="M 2597 2516 
Q 3050 2419 3304 2112 
Q 3559 1806 3559 1356 
Q 3559 666 3084 287 
Q 2609 -91 1734 -91 
Q 1441 -91 1130 -33 
Q 819 25 488 141 
L 488 750 
Q 750 597 1062 519 
Q 1375 441 1716 441 
Q 2309 441 2620 675 
Q 2931 909 2931 1356 
Q 2931 1769 2642 2001 
Q 2353 2234 1838 2234 
L 1294 2234 
L 1294 2753 
L 1863 2753 
Q 2328 2753 2575 2939 
Q 2822 3125 2822 3475 
Q 2822 3834 2567 4026 
Q 2313 4219 1838 4219 
Q 1578 4219 1281 4162 
Q 984 4106 628 3988 
L 628 4550 
Q 988 4650 1302 4700 
Q 1616 4750 1894 4750 
Q 2613 4750 3031 4423 
Q 3450 4097 3450 3541 
Q 3450 3153 3228 2886 
Q 3006 2619 2597 2516 
z
" transform="scale(0.015625)"/>
       </defs>
       <use xlink:href="#DejaVuSans-33"/>
       <use xlink:href="#DejaVuSans-30" x="63.623047"/>
       <use xlink:href="#DejaVuSans-30" x="127.246094"/>
      </g>
     </g>
    </g>
    <g id="xtick_5">
     <g id="line2d_5">
      <g>
       <use xlink:href="#m733bcb9468" x="365.657038" y="307.584" style="stroke: #000000; stroke-width: 0.8"/>
      </g>
     </g>
     <g id="text_5">
      <!-- 400 -->
      <g transform="translate(356.113288 322.182437) scale(0.1 -0.1)">
       <defs>
        <path id="DejaVuSans-34" d="M 2419 4116 
L 825 1625 
L 2419 1625 
L 2419 4116 
z
M 2253 4666 
L 3047 4666 
L 3047 1625 
L 3713 1625 
L 3713 1100 
L 3047 1100 
L 3047 0 
L 2419 0 
L 2419 1100 
L 313 1100 
L 313 1709 
L 2253 4666 
z
" transform="scale(0.015625)"/>
       </defs>
       <use xlink:href="#DejaVuSans-34"/>
       <use xlink:href="#DejaVuSans-30" x="63.623047"/>
       <use xlink:href="#DejaVuSans-30" x="127.246094"/>
      </g>
     </g>
    </g>
   </g>
   <g id="matplotlib.axis_2">
    <g id="ytick_1">
     <g id="line2d_6">
      <defs>
       <path id="ma97e02cc78" d="M 0 0 
L -3.5 0 
" style="stroke: #000000; stroke-width: 0.8"/>
      </defs>
      <g>
       <use xlink:href="#ma97e02cc78" x="57.6" y="270.854809" style="stroke: #000000; stroke-width: 0.8"/>
      </g>
     </g>
     <g id="text_6">
      <!-- 1 -->
      <g transform="translate(44.2375 274.654027) scale(0.1 -0.1)">
       <use xlink:href="#DejaVuSans-31"/>
      </g>
     </g>
    </g>
    <g id="ytick_2">
     <g id="line2d_7">
      <g>
       <use xlink:href="#ma97e02cc78" x="57.6" y="234.088851" style="stroke: #000000; stroke-width: 0.8"/>
      </g>
     </g>
     <g id="text_7">
      <!-- 2 -->
      <g transform="translate(44.2375 237.88807) scale(0.1 -0.1)">
       <use xlink:href="#DejaVuSans-32"/>
      </g>
     </g>
    </g>
    <g id="ytick_3">
     <g id="line2d_8">
      <g>
       <use xlink:href="#ma97e02cc78" x="57.6" y="197.322894" style="stroke: #000000; stroke-width: 0.8"/>
      </g>
     </g>
     <g id="text_8">
      <!-- 3 -->
      <g transform="translate(44.2375 201.122112) scale(0.1 -0.1)">
       <use xlink:href="#DejaVuSans-33"/>
      </g>
     </g>
    </g>
    <g id="ytick_4">
     <g id="line2d_9">
      <g>
       <use xlink:href="#ma97e02cc78" x="57.6" y="160.556936" style="stroke: #000000; stroke-width: 0.8"/>
      </g>
     </g>
     <g id="text_9">
      <!-- 4 -->
      <g transform="translate(44.2375 164.356155) scale(0.1 -0.1)">
       <use xlink:href="#DejaVuSans-34"/>
      </g>
     </g>
    </g>
    <g id="ytick_5">
     <g id="line2d_10">
      <g>
       <use xlink:href="#ma97e02cc78" x="57.6" y="123.790979" style="stroke: #000000; stroke-width: 0.8"/>
      </g>
     </g>
     <g id="text_10">
      <!-- 5 -->
      <g transform="translate(44.2375 127.590197) scale(0.1 -0.1)">
       <defs>
        <path id="DejaVuSans-35" d="M 691 4666 
L 3169 4666 
L 3169 4134 
L 1269 4134 
L 1269 2991 
Q 1406 3038 1543 3061 
Q 1681 3084 1819 3084 
Q 2600 3084 3056 2656 
Q 3513 2228 3513 1497 
Q 3513 744 3044 326 
Q 2575 -91 1722 -91 
Q 1428 -91 1123 -41 
Q 819 9 494 109 
L 494 744 
Q 775 591 1075 516 
Q 1375 441 1709 441 
Q 2250 441 2565 725 
Q 2881 1009 2881 1497 
Q 2881 1984 2565 2268 
Q 2250 2553 1709 2553 
Q 1456 2553 1204 2497 
Q 953 2441 691 2322 
L 691 4666 
z
" transform="scale(0.015625)"/>
       </defs>
       <use xlink:href="#DejaVuSans-35"/>
      </g>
     </g>
    </g>
    <g id="ytick_6">
     <g id="line2d_11">
      <g>
       <use xlink:href="#ma97e02cc78" x="57.6" y="87.025021" style="stroke: #000000; stroke-width: 0.8"/>
      </g>
     </g>
     <g id="text_11">
      <!-- 6 -->
      <g transform="translate(44.2375 90.82424) scale(0.1 -0.1)">
       <defs>
        <path id="DejaVuSans-36" d="M 2113 2584 
Q 1688 2584 1439 2293 
Q 1191 2003 1191 1497 
Q 1191 994 1439 701 
Q 1688 409 2113 409 
Q 2538 409 2786 701 
Q 3034 994 3034 1497 
Q 3034 2003 2786 2293 
Q 2538 2584 2113 2584 
z
M 3366 4563 
L 3366 3988 
Q 3128 4100 2886 4159 
Q 2644 4219 2406 4219 
Q 1781 4219 1451 3797 
Q 1122 3375 1075 2522 
Q 1259 2794 1537 2939 
Q 1816 3084 2150 3084 
Q 2853 3084 3261 2657 
Q 3669 2231 3669 1497 
Q 3669 778 3244 343 
Q 2819 -91 2113 -91 
Q 1303 -91 875 529 
Q 447 1150 447 2328 
Q 447 3434 972 4092 
Q 1497 4750 2381 4750 
Q 2619 4750 2861 4703 
Q 3103 4656 3366 4563 
z
" transform="scale(0.015625)"/>
       </defs>
       <use xlink:href="#DejaVuSans-36"/>
      </g>
     </g>
    </g>
    <g id="ytick_7">
     <g id="line2d_12">
      <g>
       <use xlink:href="#ma97e02cc78" x="57.6" y="50.259064" style="stroke: #000000; stroke-width: 0.8"/>
      </g>
     </g>
     <g id="text_12">
      <!-- 7 -->
      <g transform="translate(44.2375 54.058283) scale(0.1 -0.1)">
       <defs>
        <path id="DejaVuSans-37" d="M 525 4666 
L 3525 4666 
L 3525 4397 
L 1831 0 
L 1172 0 
L 2766 4134 
L 525 4134 
L 525 4666 
z
" transform="scale(0.015625)"/>
       </defs>
       <use xlink:href="#DejaVuSans-37"/>
      </g>
     </g>
    </g>
   </g>
   <g id="line2d_13">
    <path d="M 73.832727 277.105021 
L 74.562288 264.604596 
L 75.291849 277.472681 
L 76.02141 247.324596 
L 76.75097 180.042894 
L 77.480531 176.733957 
L 78.210092 156.88034 
L 79.669213 213.867574 
L 80.398774 192.543319 
L 81.128335 224.529702 
L 81.857896 230.044596 
L 82.587457 230.779915 
L 83.317017 206.882043 
L 84.046578 209.823319 
L 84.776139 217.176511 
L 85.5057 232.985872 
L 86.23526 255.045447 
L 86.964821 266.810553 
L 87.694382 249.162894 
L 88.423943 226.73566 
L 89.153504 173.792681 
L 89.883064 162.027574 
L 90.612625 175.630979 
L 91.342186 246.956936 
L 92.071747 250.265872 
L 92.801307 183.35183 
L 93.530868 180.042894 
L 94.98999 220.117787 
L 95.719551 215.338213 
L 96.449111 187.396085 
L 97.178672 182.248851 
L 98.637794 190.705021 
L 99.367354 207.617362 
L 100.096915 220.853106 
L 100.826476 254.310128 
L 101.556037 236.662468 
L 102.285598 227.470979 
L 103.015158 252.47183 
L 103.744719 260.56034 
L 104.47428 214.970553 
L 105.203841 246.221617 
L 105.933401 223.059064 
L 106.662962 228.206298 
L 107.392523 240.339064 
L 108.122084 195.116936 
L 108.851645 215.338213 
L 109.581205 252.47183 
L 110.310766 258.354383 
L 111.040327 221.220766 
L 111.769888 211.293957 
L 112.499448 230.044596 
L 113.229009 223.794383 
L 113.95857 223.794383 
L 114.688131 213.499915 
L 115.417692 194.381617 
L 116.147252 208.352681 
M 117.606374 96.216511 
L 118.335935 169.380766 
L 119.065495 210.190979 
L 119.795056 218.279489 
L 120.524617 221.956085 
L 121.254178 232.618213 
L 121.983739 205.043745 
L 122.713299 156.512681 
L 123.44286 169.013106 
L 124.172421 207.985021 
L 124.901982 216.073532 
L 125.631542 205.043745 
L 126.361103 174.89566 
L 127.090664 221.956085 
L 127.820225 250.633532 
L 128.549785 256.516085 
L 129.279346 219.014809 
L 130.008907 252.47183 
L 130.738468 273.060766 
L 131.468029 271.590128 
L 132.197589 208.72034 
L 132.92715 214.602894 
L 133.656711 180.042894 
L 134.386272 193.646298 
L 135.115832 227.838638 
L 135.845393 236.662468 
L 136.574954 200.26417 
L 137.304515 182.98417 
L 138.034076 149.527149 
L 139.493197 120.114383 
L 140.222758 134.085447 
L 140.952319 123.05566 
L 141.681879 134.820766 
M 143.141001 66.068426 
L 143.870562 163.865872 
L 144.600123 223.794383 
L 145.329683 229.676936 
L 146.059244 245.118638 
L 146.788805 238.868426 
L 147.518366 171.586723 
L 148.247926 233.353532 
L 148.977487 244.383319 
L 149.707048 237.765447 
L 150.436609 235.19183 
L 151.16617 237.030128 
L 151.89573 223.059064 
M 153.354852 121.585021 
L 154.084413 182.98417 
L 154.813973 181.145872 
L 155.543534 242.545021 
L 156.273095 263.869277 
L 157.002656 227.470979 
L 158.461777 248.427574 
L 159.191338 222.691404 
L 159.920899 228.573957 
L 160.65046 266.810553 
L 161.38002 275.634383 
L 162.109581 277.105021 
L 162.839142 274.163745 
L 163.568703 274.163745 
L 164.298264 250.633532 
L 165.027824 209.45566 
L 165.757385 253.942468 
L 166.486946 170.483745 
L 167.216507 200.63183 
L 167.946067 205.043745 
L 168.675628 197.322894 
L 169.405189 183.719489 
L 170.13475 188.499064 
L 170.864311 210.926298 
L 171.593871 160.189277 
L 172.323432 141.806298 
L 173.052993 180.778213 
L 173.782554 183.35183 
L 174.512114 153.939064 
L 175.241675 201.367149 
L 175.971236 151.733106 
L 176.700797 145.850553 
L 177.430358 158.350979 
L 178.159918 215.338213 
L 178.889479 230.044596 
L 179.61904 181.881191 
L 180.348601 183.35183 
L 181.078161 176.733957 
L 181.807722 196.587574 
L 182.537283 213.132255 
L 183.266844 245.853957 
L 183.996404 239.603745 
L 184.725965 203.205447 
L 185.455526 224.529702 
L 186.185087 202.102468 
L 186.914648 239.971404 
L 187.644208 249.530553 
L 189.10333 259.825021 
L 189.832891 240.339064 
L 190.562451 249.530553 
L 191.292012 251.736511 
L 192.021573 256.883745 
L 192.751134 232.618213 
L 193.480695 251.736511 
L 194.210255 224.529702 
L 194.939816 230.044596 
L 195.669377 217.91183 
L 196.398938 140.33566 
L 197.128498 170.483745 
L 197.858059 134.453106 
L 198.58762 197.690553 
L 199.317181 241.074383 
L 200.046742 243.28034 
L 200.776302 246.956936 
L 201.505863 276.737362 
L 202.235424 277.105021 
L 202.964985 261.663319 
L 203.694545 260.928 
L 204.424106 244.383319 
L 205.153667 255.413106 
L 205.883228 246.956936 
L 206.612789 213.499915 
L 207.342349 241.809702 
L 208.07191 258.354383 
L 208.801471 239.236085 
L 209.531032 261.663319 
L 210.260592 260.56034 
L 210.990153 244.01566 
L 211.719714 223.426723 
L 212.449275 249.898213 
L 213.178836 257.251404 
L 213.908396 257.986723 
L 214.637957 252.10417 
L 215.367518 264.972255 
L 216.097079 262.030979 
L 216.826639 260.56034 
L 217.5562 271.957787 
L 218.285761 257.251404 
L 219.015322 250.265872 
L 219.744883 273.428426 
L 220.474443 270.487149 
L 221.204004 243.648 
L 221.933565 247.692255 
L 222.663126 234.088851 
L 223.392686 236.662468 
L 224.122247 198.425872 
L 224.851808 270.119489 
L 225.581369 266.075234 
L 226.31093 241.442043 
L 227.04049 242.545021 
L 227.770051 195.116936 
L 228.499612 220.485447 
L 229.229173 269.016511 
L 229.958733 269.016511 
L 230.688294 228.206298 
L 231.417855 231.515234 
L 232.147416 238.868426 
L 232.876977 223.059064 
L 233.606537 195.116936 
L 234.336098 245.853957 
L 235.065659 262.766298 
L 235.79522 265.339915 
L 236.52478 271.222468 
L 237.254341 278.208 
L 237.983902 274.531404 
L 238.713463 262.398638 
L 239.443023 271.222468 
L 240.172584 255.413106 
L 240.902145 246.956936 
L 241.631706 265.339915 
L 242.361267 250.265872 
L 243.090827 217.91183 
L 243.820388 197.322894 
L 244.549949 204.676085 
L 245.27951 258.722043 
L 246.00907 262.766298 
L 246.738631 235.927149 
L 247.468192 267.913532 
L 248.197753 263.501617 
L 248.927314 260.192681 
L 249.656874 258.722043 
L 250.386435 271.222468 
L 251.115996 288.870128 
L 251.845557 287.03183 
L 252.575117 284.825872 
L 253.304678 292.546723 
L 254.034239 295.488 
L 254.7638 274.163745 
L 255.493361 248.059915 
L 256.222921 264.236936 
L 256.952482 271.590128 
L 257.682043 264.972255 
L 258.411604 259.825021 
L 259.141164 282.619915 
L 259.870725 278.943319 
L 260.600286 260.928 
L 261.329847 256.516085 
L 262.059408 239.236085 
L 262.788968 232.985872 
L 264.24809 251.368851 
L 264.977651 241.074383 
L 265.707211 259.825021 
L 266.436772 264.972255 
L 267.166333 253.574809 
L 267.895894 238.133106 
L 268.625455 234.82417 
L 269.355015 227.838638 
L 270.084576 223.794383 
L 270.814137 275.266723 
L 271.543698 273.796085 
L 273.002819 232.250553 
L 273.73238 234.088851 
L 274.461941 249.162894 
L 275.191502 271.222468 
L 275.921062 279.310979 
L 276.650623 246.589277 
L 277.380184 271.957787 
L 278.109745 281.884596 
L 278.839305 274.163745 
L 279.568866 251.368851 
L 280.298427 257.251404 
L 281.027988 271.222468 
L 281.757549 262.766298 
L 282.487109 270.487149 
L 283.21667 255.780766 
L 283.946231 184.087149 
L 284.675792 238.500766 
L 285.405352 261.663319 
L 286.134913 280.413957 
L 286.864474 291.076085 
L 287.594035 262.766298 
L 288.323596 260.56034 
L 289.053156 215.705872 
L 289.782717 198.425872 
L 290.512278 219.382468 
L 291.241839 256.516085 
L 291.971399 271.222468 
L 292.70096 278.57566 
L 293.430521 258.722043 
L 294.160082 248.427574 
L 294.889642 259.825021 
L 295.619203 268.648851 
L 297.078325 249.530553 
L 297.807886 247.324596 
L 298.537446 270.487149 
L 299.267007 278.208 
L 299.996568 283.722894 
L 300.726129 277.105021 
L 301.455689 257.619064 
L 302.18525 246.956936 
L 302.914811 240.339064 
L 303.644372 245.486298 
L 304.373933 256.148426 
L 305.103493 248.427574 
L 305.833054 208.352681 
L 306.562615 236.662468 
L 307.292176 240.706723 
L 308.751297 277.472681 
L 309.480858 279.678638 
L 310.210419 280.781617 
L 310.93998 281.516936 
L 311.66954 278.943319 
L 312.399101 273.428426 
L 313.128662 281.516936 
L 313.858223 285.193532 
L 314.587783 291.811404 
L 315.317344 289.973106 
L 316.046905 246.956936 
L 316.776466 245.853957 
L 317.506027 249.162894 
L 318.235587 251.001191 
L 318.965148 242.177362 
L 319.694709 235.927149 
L 320.42427 249.530553 
L 321.15383 259.089702 
L 321.883391 247.324596 
L 322.612952 256.148426 
L 323.342513 281.149277 
L 324.072074 284.090553 
L 324.801634 236.294809 
L 325.531195 211.661617 
L 326.260756 247.324596 
L 326.990317 237.030128 
L 327.719877 236.294809 
L 328.449438 274.531404 
L 329.178999 276.369702 
L 329.90856 259.825021 
L 330.638121 260.928 
L 331.367681 245.486298 
L 332.097242 270.854809 
L 332.826803 272.693106 
L 333.556364 287.767149 
L 334.285924 286.296511 
L 335.015485 225.632681 
L 335.745046 227.838638 
L 336.474607 218.647149 
L 337.204168 237.397787 
L 337.933728 244.750979 
L 338.663289 243.28034 
L 339.39285 264.236936 
L 340.122411 267.913532 
L 340.851971 259.457362 
L 341.581532 248.427574 
L 342.311093 257.986723 
L 343.040654 272.325447 
L 343.770215 273.428426 
L 344.499775 274.163745 
L 345.229336 278.208 
L 345.958897 283.355234 
L 346.688458 273.060766 
L 347.418018 220.117787 
L 348.147579 223.059064 
L 348.87714 223.794383 
L 349.606701 219.382468 
L 350.336261 221.956085 
L 351.065822 210.558638 
L 351.795383 215.338213 
L 352.524944 219.014809 
L 353.254505 187.028426 
L 354.713626 235.559489 
L 355.443187 246.221617 
L 356.172748 230.779915 
L 356.902308 248.059915 
L 357.631869 246.956936 
L 358.36143 221.956085 
L 359.090991 203.573106 
L 359.820552 213.867574 
L 360.550112 210.926298 
L 361.279673 178.204596 
L 362.009234 179.675234 
L 362.738795 196.955234 
L 363.468355 143.276936 
L 364.197916 178.572255 
L 364.927477 166.807149 
L 365.657038 176.733957 
L 366.386599 181.145872 
L 367.116159 152.468426 
L 367.84572 191.808 
L 368.575281 216.441191 
L 369.304842 213.867574 
L 370.034402 227.838638 
L 370.763963 248.059915 
L 371.493524 232.985872 
L 372.223085 194.013957 
L 372.952646 240.339064 
L 373.682206 242.177362 
L 374.411767 155.042043 
L 375.141328 100.996085 
L 375.870889 132.247149 
L 376.600449 182.98417 
L 377.33001 179.307574 
L 378.059571 191.072681 
L 378.789132 192.17566 
L 379.518693 117.540766 
L 380.248253 148.056511 
L 380.977814 171.586723 
L 381.707375 146.585872 
L 382.436936 155.042043 
L 383.166496 186.293106 
L 383.896057 179.675234 
L 384.625618 197.322894 
L 385.355179 230.044596 
L 386.08474 216.441191 
L 386.8143 197.322894 
L 387.543861 172.689702 
L 388.273422 173.792681 
L 389.002983 189.969702 
L 389.732543 162.395234 
L 390.462104 156.88034 
L 391.191665 173.425021 
L 391.921226 164.968851 
L 392.650787 114.23183 
L 393.380347 132.614809 
L 394.109908 166.439489 
L 394.839469 141.806298 
L 395.56903 188.499064 
L 396.29859 180.410553 
L 397.028151 153.203745 
L 397.757712 53.568 
L 398.487273 114.967149 
L 398.487273 114.967149 
" clip-path="url(#pded9400bf0)" style="fill: none; stroke: #1f77b4; stroke-width: 1.5; stroke-linecap: square"/>
   </g>
   <g id="patch_3">
    <path d="M 57.6 307.584 
L 57.6 41.472 
" style="fill: none; stroke: #000000; stroke-width: 0.8; stroke-linejoin: miter; stroke-linecap: square"/>
   </g>
   <g id="patch_4">
    <path d="M 414.72 307.584 
L 414.72 41.472 
" style="fill: none; stroke: #000000; stroke-width: 0.8; stroke-linejoin: miter; stroke-linecap: square"/>
   </g>
   <g id="patch_5">
    <path d="M 57.6 307.584 
L 414.72 307.584 
" style="fill: none; stroke: #000000; stroke-width: 0.8; stroke-linejoin: miter; stroke-linecap: square"/>
   </g>
   <g id="patch_6">
    <path d="M 57.6 41.472 
L 414.72 41.472 
" style="fill: none; stroke: #000000; stroke-width: 0.8; stroke-linejoin: miter; stroke-linecap: square"/>
   </g>
  </g>
 </g>
 <defs>
  <clipPath id="pded9400bf0">
   <rect x="57.6" y="41.472" width="357.12" height="266.112"/>
  </clipPath>
 </defs>
</svg>
