<?xml version="1.0" encoding="utf-8" standalone="no"?>
<!DOCTYPE svg PUBLIC "-//W3C//DTD SVG 1.1//EN"
  "http://www.w3.org/Graphics/SVG/1.1/DTD/svg11.dtd">
<svg xmlns:xlink="http://www.w3.org/1999/xlink" width="720pt" height="216pt" viewBox="0 0 720 216" xmlns="http://www.w3.org/2000/svg" version="1.1">
 <metadata>
  <rdf:RDF xmlns:dc="http://purl.org/dc/elements/1.1/" xmlns:cc="http://creativecommons.org/ns#" xmlns:rdf="http://www.w3.org/1999/02/22-rdf-syntax-ns#">
   <cc:Work>
    <dc:type rdf:resource="http://purl.org/dc/dcmitype/StillImage"/>
    <dc:date>2022-12-21T15:24:14.310855</dc:date>
    <dc:format>image/svg+xml</dc:format>
    <dc:creator>
     <cc:Agent>
      <dc:title>Matplotlib v3.6.2, https://matplotlib.org/</dc:title>
     </cc:Agent>
    </dc:creator>
   </cc:Work>
  </rdf:RDF>
 </metadata>
 <defs>
  <style type="text/css">*{stroke-linejoin: round; stroke-linecap: butt}</style>
 </defs>
 <g id="figure_1">
  <g id="patch_1">
   <path d="M 0 216 
L 720 216 
L 720 0 
L 0 0 
z
" style="fill: #ffffff"/>
  </g>
  <g id="axes_1">
   <g id="patch_2">
    <path d="M 38.27 188.12 
L 236.4 188.12 
L 236.4 12.787826 
L 38.27 12.787826 
z
" style="fill: #ffffff"/>
   </g>
   <g id="matplotlib.axis_1">
    <g id="xtick_1">
     <g id="line2d_1">
      <defs>
       <path id="mcd641d48a2" d="M 0 0 
L 0 3.5 
" style="stroke: #000000; stroke-width: 0.8"/>
      </defs>
      <g>
       <use xlink:href="#mcd641d48a2" x="47.275909" y="188.12" style="stroke: #000000; stroke-width: 0.8"/>
      </g>
     </g>
     <g id="text_1">
      <!-- 0 -->
      <g transform="translate(44.094659 202.718437) scale(0.1 -0.1)">
       <defs>
        <path id="DejaVuSans-30" d="M 2034 4250 
Q 1547 4250 1301 3770 
Q 1056 3291 1056 2328 
Q 1056 1369 1301 889 
Q 1547 409 2034 409 
Q 2525 409 2770 889 
Q 3016 1369 3016 2328 
Q 3016 3291 2770 3770 
Q 2525 4250 2034 4250 
z
M 2034 4750 
Q 2819 4750 3233 4129 
Q 3647 3509 3647 2328 
Q 3647 1150 3233 529 
Q 2819 -91 2034 -91 
Q 1250 -91 836 529 
Q 422 1150 422 2328 
Q 422 3509 836 4129 
Q 1250 4750 2034 4750 
z
" transform="scale(0.015625)"/>
       </defs>
       <use xlink:href="#DejaVuSans-30"/>
      </g>
     </g>
    </g>
    <g id="xtick_2">
     <g id="line2d_2">
      <g>
       <use xlink:href="#mcd641d48a2" x="87.751905" y="188.12" style="stroke: #000000; stroke-width: 0.8"/>
      </g>
     </g>
     <g id="text_2">
      <!-- 100 -->
      <g transform="translate(78.208155 202.718437) scale(0.1 -0.1)">
       <defs>
        <path id="DejaVuSans-31" d="M 794 531 
L 1825 531 
L 1825 4091 
L 703 3866 
L 703 4441 
L 1819 4666 
L 2450 4666 
L 2450 531 
L 3481 531 
L 3481 0 
L 794 0 
L 794 531 
z
" transform="scale(0.015625)"/>
       </defs>
       <use xlink:href="#DejaVuSans-31"/>
       <use xlink:href="#DejaVuSans-30" x="63.623047"/>
       <use xlink:href="#DejaVuSans-30" x="127.246094"/>
      </g>
     </g>
    </g>
    <g id="xtick_3">
     <g id="line2d_3">
      <g>
       <use xlink:href="#mcd641d48a2" x="128.227901" y="188.12" style="stroke: #000000; stroke-width: 0.8"/>
      </g>
     </g>
     <g id="text_3">
      <!-- 200 -->
      <g transform="translate(118.684151 202.718437) scale(0.1 -0.1)">
       <defs>
        <path id="DejaVuSans-32" d="M 1228 531 
L 3431 531 
L 3431 0 
L 469 0 
L 469 531 
Q 828 903 1448 1529 
Q 2069 2156 2228 2338 
Q 2531 2678 2651 2914 
Q 2772 3150 2772 3378 
Q 2772 3750 2511 3984 
Q 2250 4219 1831 4219 
Q 1534 4219 1204 4116 
Q 875 4013 500 3803 
L 500 4441 
Q 881 4594 1212 4672 
Q 1544 4750 1819 4750 
Q 2544 4750 2975 4387 
Q 3406 4025 3406 3419 
Q 3406 3131 3298 2873 
Q 3191 2616 2906 2266 
Q 2828 2175 2409 1742 
Q 1991 1309 1228 531 
z
" transform="scale(0.015625)"/>
       </defs>
       <use xlink:href="#DejaVuSans-32"/>
       <use xlink:href="#DejaVuSans-30" x="63.623047"/>
       <use xlink:href="#DejaVuSans-30" x="127.246094"/>
      </g>
     </g>
    </g>
    <g id="xtick_4">
     <g id="line2d_4">
      <g>
       <use xlink:href="#mcd641d48a2" x="168.703897" y="188.12" style="stroke: #000000; stroke-width: 0.8"/>
      </g>
     </g>
     <g id="text_4">
      <!-- 300 -->
      <g transform="translate(159.160147 202.718437) scale(0.1 -0.1)">
       <defs>
        <path id="DejaVuSans-33" d="M 2597 2516 
Q 3050 2419 3304 2112 
Q 3559 1806 3559 1356 
Q 3559 666 3084 287 
Q 2609 -91 1734 -91 
Q 1441 -91 1130 -33 
Q 819 25 488 141 
L 488 750 
Q 750 597 1062 519 
Q 1375 441 1716 441 
Q 2309 441 2620 675 
Q 2931 909 2931 1356 
Q 2931 1769 2642 2001 
Q 2353 2234 1838 2234 
L 1294 2234 
L 1294 2753 
L 1863 2753 
Q 2328 2753 2575 2939 
Q 2822 3125 2822 3475 
Q 2822 3834 2567 4026 
Q 2313 4219 1838 4219 
Q 1578 4219 1281 4162 
Q 984 4106 628 3988 
L 628 4550 
Q 988 4650 1302 4700 
Q 1616 4750 1894 4750 
Q 2613 4750 3031 4423 
Q 3450 4097 3450 3541 
Q 3450 3153 3228 2886 
Q 3006 2619 2597 2516 
z
" transform="scale(0.015625)"/>
       </defs>
       <use xlink:href="#DejaVuSans-33"/>
       <use xlink:href="#DejaVuSans-30" x="63.623047"/>
       <use xlink:href="#DejaVuSans-30" x="127.246094"/>
      </g>
     </g>
    </g>
    <g id="xtick_5">
     <g id="line2d_5">
      <g>
       <use xlink:href="#mcd641d48a2" x="209.179893" y="188.12" style="stroke: #000000; stroke-width: 0.8"/>
      </g>
     </g>
     <g id="text_5">
      <!-- 400 -->
      <g transform="translate(199.636143 202.718437) scale(0.1 -0.1)">
       <defs>
        <path id="DejaVuSans-34" d="M 2419 4116 
L 825 1625 
L 2419 1625 
L 2419 4116 
z
M 2253 4666 
L 3047 4666 
L 3047 1625 
L 3713 1625 
L 3713 1100 
L 3047 1100 
L 3047 0 
L 2419 0 
L 2419 1100 
L 313 1100 
L 313 1709 
L 2253 4666 
z
" transform="scale(0.015625)"/>
       </defs>
       <use xlink:href="#DejaVuSans-34"/>
       <use xlink:href="#DejaVuSans-30" x="63.623047"/>
       <use xlink:href="#DejaVuSans-30" x="127.246094"/>
      </g>
     </g>
    </g>
   </g>
   <g id="matplotlib.axis_2">
    <g id="ytick_1">
     <g id="line2d_6">
      <defs>
       <path id="m62e18f3de8" d="M 0 0 
L -3.5 0 
" style="stroke: #000000; stroke-width: 0.8"/>
      </defs>
      <g>
       <use xlink:href="#m62e18f3de8" x="38.27" y="149.190296" style="stroke: #000000; stroke-width: 0.8"/>
      </g>
     </g>
     <g id="text_6">
      <!-- 2 -->
      <g transform="translate(24.9075 152.989515) scale(0.1 -0.1)">
       <use xlink:href="#DejaVuSans-32"/>
      </g>
     </g>
    </g>
    <g id="ytick_2">
     <g id="line2d_7">
      <g>
       <use xlink:href="#m62e18f3de8" x="38.27" y="106.633513" style="stroke: #000000; stroke-width: 0.8"/>
      </g>
     </g>
     <g id="text_7">
      <!-- 4 -->
      <g transform="translate(24.9075 110.432731) scale(0.1 -0.1)">
       <use xlink:href="#DejaVuSans-34"/>
      </g>
     </g>
    </g>
    <g id="ytick_3">
     <g id="line2d_8">
      <g>
       <use xlink:href="#m62e18f3de8" x="38.27" y="64.076729" style="stroke: #000000; stroke-width: 0.8"/>
      </g>
     </g>
     <g id="text_8">
      <!-- 6 -->
      <g transform="translate(24.9075 67.875948) scale(0.1 -0.1)">
       <defs>
        <path id="DejaVuSans-36" d="M 2113 2584 
Q 1688 2584 1439 2293 
Q 1191 2003 1191 1497 
Q 1191 994 1439 701 
Q 1688 409 2113 409 
Q 2538 409 2786 701 
Q 3034 994 3034 1497 
Q 3034 2003 2786 2293 
Q 2538 2584 2113 2584 
z
M 3366 4563 
L 3366 3988 
Q 3128 4100 2886 4159 
Q 2644 4219 2406 4219 
Q 1781 4219 1451 3797 
Q 1122 3375 1075 2522 
Q 1259 2794 1537 2939 
Q 1816 3084 2150 3084 
Q 2853 3084 3261 2657 
Q 3669 2231 3669 1497 
Q 3669 778 3244 343 
Q 2819 -91 2113 -91 
Q 1303 -91 875 529 
Q 447 1150 447 2328 
Q 447 3434 972 4092 
Q 1497 4750 2381 4750 
Q 2619 4750 2861 4703 
Q 3103 4656 3366 4563 
z
" transform="scale(0.015625)"/>
       </defs>
       <use xlink:href="#DejaVuSans-36"/>
      </g>
     </g>
    </g>
    <g id="ytick_4">
     <g id="line2d_9">
      <g>
       <use xlink:href="#m62e18f3de8" x="38.27" y="21.519946" style="stroke: #000000; stroke-width: 0.8"/>
      </g>
     </g>
     <g id="text_9">
      <!-- 8 -->
      <g transform="translate(24.9075 25.319165) scale(0.1 -0.1)">
       <defs>
        <path id="DejaVuSans-38" d="M 2034 2216 
Q 1584 2216 1326 1975 
Q 1069 1734 1069 1313 
Q 1069 891 1326 650 
Q 1584 409 2034 409 
Q 2484 409 2743 651 
Q 3003 894 3003 1313 
Q 3003 1734 2745 1975 
Q 2488 2216 2034 2216 
z
M 1403 2484 
Q 997 2584 770 2862 
Q 544 3141 544 3541 
Q 544 4100 942 4425 
Q 1341 4750 2034 4750 
Q 2731 4750 3128 4425 
Q 3525 4100 3525 3541 
Q 3525 3141 3298 2862 
Q 3072 2584 2669 2484 
Q 3125 2378 3379 2068 
Q 3634 1759 3634 1313 
Q 3634 634 3220 271 
Q 2806 -91 2034 -91 
Q 1263 -91 848 271 
Q 434 634 434 1313 
Q 434 1759 690 2068 
Q 947 2378 1403 2484 
z
M 1172 3481 
Q 1172 3119 1398 2916 
Q 1625 2713 2034 2713 
Q 2441 2713 2670 2916 
Q 2900 3119 2900 3481 
Q 2900 3844 2670 4047 
Q 2441 4250 2034 4250 
Q 1625 4250 1398 4047 
Q 1172 3844 1172 3481 
z
" transform="scale(0.015625)"/>
       </defs>
       <use xlink:href="#DejaVuSans-38"/>
      </g>
     </g>
    </g>
    <g id="text_10">
     <!-- average -->
     <g transform="translate(18.827813 120.924226) rotate(-90) scale(0.1 -0.1)">
      <defs>
       <path id="DejaVuSans-61" d="M 2194 1759 
Q 1497 1759 1228 1600 
Q 959 1441 959 1056 
Q 959 750 1161 570 
Q 1363 391 1709 391 
Q 2188 391 2477 730 
Q 2766 1069 2766 1631 
L 2766 1759 
L 2194 1759 
z
M 3341 1997 
L 3341 0 
L 2766 0 
L 2766 531 
Q 2569 213 2275 61 
Q 1981 -91 1556 -91 
Q 1019 -91 701 211 
Q 384 513 384 1019 
Q 384 1609 779 1909 
Q 1175 2209 1959 2209 
L 2766 2209 
L 2766 2266 
Q 2766 2663 2505 2880 
Q 2244 3097 1772 3097 
Q 1472 3097 1187 3025 
Q 903 2953 641 2809 
L 641 3341 
Q 956 3463 1253 3523 
Q 1550 3584 1831 3584 
Q 2591 3584 2966 3190 
Q 3341 2797 3341 1997 
z
" transform="scale(0.015625)"/>
       <path id="DejaVuSans-76" d="M 191 3500 
L 800 3500 
L 1894 563 
L 2988 3500 
L 3597 3500 
L 2284 0 
L 1503 0 
L 191 3500 
z
" transform="scale(0.015625)"/>
       <path id="DejaVuSans-65" d="M 3597 1894 
L 3597 1613 
L 953 1613 
Q 991 1019 1311 708 
Q 1631 397 2203 397 
Q 2534 397 2845 478 
Q 3156 559 3463 722 
L 3463 178 
Q 3153 47 2828 -22 
Q 2503 -91 2169 -91 
Q 1331 -91 842 396 
Q 353 884 353 1716 
Q 353 2575 817 3079 
Q 1281 3584 2069 3584 
Q 2775 3584 3186 3129 
Q 3597 2675 3597 1894 
z
M 3022 2063 
Q 3016 2534 2758 2815 
Q 2500 3097 2075 3097 
Q 1594 3097 1305 2825 
Q 1016 2553 972 2059 
L 3022 2063 
z
" transform="scale(0.015625)"/>
       <path id="DejaVuSans-72" d="M 2631 2963 
Q 2534 3019 2420 3045 
Q 2306 3072 2169 3072 
Q 1681 3072 1420 2755 
Q 1159 2438 1159 1844 
L 1159 0 
L 581 0 
L 581 3500 
L 1159 3500 
L 1159 2956 
Q 1341 3275 1631 3429 
Q 1922 3584 2338 3584 
Q 2397 3584 2469 3576 
Q 2541 3569 2628 3553 
L 2631 2963 
z
" transform="scale(0.015625)"/>
       <path id="DejaVuSans-67" d="M 2906 1791 
Q 2906 2416 2648 2759 
Q 2391 3103 1925 3103 
Q 1463 3103 1205 2759 
Q 947 2416 947 1791 
Q 947 1169 1205 825 
Q 1463 481 1925 481 
Q 2391 481 2648 825 
Q 2906 1169 2906 1791 
z
M 3481 434 
Q 3481 -459 3084 -895 
Q 2688 -1331 1869 -1331 
Q 1566 -1331 1297 -1286 
Q 1028 -1241 775 -1147 
L 775 -588 
Q 1028 -725 1275 -790 
Q 1522 -856 1778 -856 
Q 2344 -856 2625 -561 
Q 2906 -266 2906 331 
L 2906 616 
Q 2728 306 2450 153 
Q 2172 0 1784 0 
Q 1141 0 747 490 
Q 353 981 353 1791 
Q 353 2603 747 3093 
Q 1141 3584 1784 3584 
Q 2172 3584 2450 3431 
Q 2728 3278 2906 2969 
L 2906 3500 
L 3481 3500 
L 3481 434 
z
" transform="scale(0.015625)"/>
      </defs>
      <use xlink:href="#DejaVuSans-61"/>
      <use xlink:href="#DejaVuSans-76" x="61.279297"/>
      <use xlink:href="#DejaVuSans-65" x="120.458984"/>
      <use xlink:href="#DejaVuSans-72" x="181.982422"/>
      <use xlink:href="#DejaVuSans-61" x="223.095703"/>
      <use xlink:href="#DejaVuSans-67" x="284.375"/>
      <use xlink:href="#DejaVuSans-65" x="347.851562"/>
     </g>
    </g>
   </g>
   <g id="line2d_10">
    <path d="M 47.275909 170.034254 
L 47.680669 162.090321 
L 48.085429 169.032396 
L 48.490189 125.713137 
L 48.894949 108.016608 
L 49.299709 102.484226 
L 49.704469 91.720906 
L 50.109229 106.137017 
L 50.513989 132.442428 
L 50.918749 94.487097 
L 51.323509 130.101805 
L 51.728269 140.696671 
L 52.133029 137.309861 
L 52.537789 127.34448 
L 52.942549 122.911482 
L 53.347308 125.411693 
L 53.752068 143.44513 
L 54.561588 164.847646 
L 55.371108 116.270851 
L 56.180628 97.173494 
L 56.585388 109.195786 
L 56.990148 132.602016 
L 57.394908 140.625743 
L 57.799668 91.330803 
L 58.204428 88.378426 
L 58.609188 119.923641 
L 59.013948 126.316025 
L 59.418708 119.276424 
L 59.823468 105.738047 
L 60.228228 104.239694 
L 60.632988 89.451211 
L 61.037748 111.802389 
L 61.847268 132.194181 
L 62.252028 155.777731 
L 62.656788 129.436856 
L 63.061547 138.666358 
L 63.466307 151.779167 
L 63.871067 152.461849 
L 64.275827 127.725718 
L 64.680587 144.358328 
L 65.085347 133.772328 
L 65.894867 142.478737 
L 66.299627 114.462188 
L 66.704387 124.977259 
L 67.109147 146.291115 
L 67.513907 159.63444 
L 67.918667 114.08095 
L 68.323427 129.188608 
L 68.728187 135.953363 
L 69.132947 116.536831 
L 69.537707 128.709844 
L 70.347227 107.050214 
L 70.751987 123.886742 
M 71.561507 47.382058 
L 72.371027 124.010866 
L 72.775787 131.759747 
L 73.180546 130.420981 
L 73.585306 142.886572 
L 73.990066 108.646094 
L 74.394826 89.805851 
L 74.799586 96.384421 
L 75.609106 132.90346 
L 76.418626 107.90135 
L 77.228146 147.009261 
L 78.037666 124.941795 
L 78.442426 142.9575 
L 78.847186 168.18126 
L 79.251946 151.619579 
L 79.656706 127.025305 
L 80.061466 120.748179 
L 80.466226 108.052072 
L 80.870986 108.681558 
L 81.275746 133.798926 
L 81.680506 144.571112 
L 82.085266 110.835995 
L 82.490026 94.19452 
L 83.299545 72.064992 
L 83.704305 68.270346 
L 84.109065 80.026657 
L 84.513825 69.227873 
L 84.918585 76.294073 
M 85.728105 20.75747 
L 86.132865 85.860483 
L 86.537625 126.236231 
L 86.942385 137.035015 
L 87.347145 138.967802 
L 87.751905 105.250417 
L 88.156665 86.144195 
L 88.561425 131.458303 
L 88.966185 149.881844 
L 89.370945 141.193167 
L 89.775705 142.69152 
L 90.180465 141.893581 
L 90.585225 137.903882 
M 91.394745 66.000651 
L 91.799505 85.266461 
L 92.204265 82.083568 
L 93.013784 157.542065 
L 93.418544 136.432127 
L 94.228064 147.869262 
L 94.632824 136.237075 
L 95.037584 136.050889 
L 95.442344 158.79217 
L 95.847104 170.681471 
L 96.251864 167.294661 
L 96.656624 167.729095 
L 97.061384 166.931155 
L 97.466144 103.113712 
L 97.870904 95.985451 
L 98.275664 140.590279 
L 98.680424 102.34237 
L 99.085184 110.782799 
L 99.489944 127.371078 
L 100.299464 105.489799 
L 100.704224 112.875174 
L 101.108984 125.065919 
L 101.513744 48.437111 
L 101.918504 44.394217 
L 102.323264 105.277015 
L 102.728023 108.193928 
L 103.132783 92.926682 
L 103.537543 116.058067 
L 103.942303 82.624394 
L 104.347063 84.211407 
L 104.751823 91.694308 
L 105.156583 109.754343 
L 105.561343 133.488616 
L 105.966103 111.297027 
L 106.370863 107.874752 
L 106.775623 106.855163 
L 107.180383 119.976837 
L 107.585143 116.643223 
L 107.989903 150.280813 
L 108.394663 145.697093 
L 108.799423 102.60835 
L 109.204183 131.378509 
L 109.608943 118.35436 
L 110.013703 139.668216 
L 110.418463 153.561232 
L 110.823223 156.717527 
L 111.227983 160.982071 
L 111.632743 146.184723 
L 112.442263 154.447832 
L 112.847022 155.13938 
L 113.251782 138.06347 
L 113.656542 147.71854 
L 114.061302 133.781194 
L 114.466062 141.866983 
L 114.870822 118.948382 
L 115.275582 80.948721 
L 115.680342 97.27102 
L 116.085102 72.18025 
L 116.489862 114.790229 
L 116.894622 138.958936 
L 117.299382 139.490896 
L 117.704142 143.241212 
L 118.108902 165.716513 
L 118.513662 166.133215 
L 118.918422 159.465986 
L 119.323182 155.724535 
L 119.727942 147.089055 
L 120.132702 157.799179 
L 120.537462 140.404093 
L 120.942222 130.864281 
L 121.751742 154.20845 
L 122.156502 146.752147 
L 122.561261 155.955051 
L 122.966021 160.485575 
L 123.370781 129.401392 
L 123.775541 135.199753 
L 124.585061 158.490726 
L 124.989821 142.390077 
L 125.394581 143.516058 
L 125.799341 162.054857 
L 126.204101 160.645163 
L 126.608861 150.422669 
L 127.013621 164.537336 
L 127.418381 156.212165 
L 127.823141 154.412368 
L 128.227901 166.656309 
L 128.632661 146.876271 
L 129.037421 150.715247 
L 129.442181 144.24307 
L 129.846941 139.74801 
L 130.251701 113.424866 
L 130.656461 109.399704 
L 131.061221 153.933604 
L 131.465981 154.811338 
L 131.870741 144.721834 
L 132.275501 146.521631 
L 132.68026 116.448171 
L 133.08502 127.61046 
L 133.48978 156.850517 
L 133.89454 124.22365 
L 134.2993 125.934787 
L 134.70406 143.321006 
L 135.10882 142.984098 
L 135.91834 102.049792 
L 136.3231 145.422247 
L 136.72786 161.407639 
L 137.94214 172.880239 
L 138.3469 162.436095 
L 138.75166 158.951758 
L 139.15642 164.04084 
L 139.56118 157.515467 
L 139.96594 149.057306 
L 140.3707 162.143517 
L 140.77546 147.177715 
L 141.18022 110.623211 
L 141.58498 103.175774 
L 141.98974 119.453744 
L 142.394499 147.754004 
L 142.799259 156.566805 
L 143.204019 136.751303 
L 143.608779 161.966197 
L 144.013539 159.386192 
L 144.418299 157.657323 
L 144.823059 154.084326 
L 145.227819 155.148246 
L 145.632579 175.681893 
L 146.037339 173.500858 
L 146.442099 175.743955 
L 146.846859 179.192828 
L 147.251619 179.379014 
L 148.061139 150.786175 
L 148.870659 167.330125 
L 149.275419 152.337725 
L 149.680179 150.777309 
L 150.084939 172.729517 
L 150.489699 168.128064 
L 150.894459 160.857947 
L 151.299219 144.500184 
L 151.703979 148.170706 
L 152.108739 137.762026 
L 152.513498 146.521631 
L 152.918258 145.315855 
L 153.323018 139.92533 
L 153.727778 159.94475 
L 154.132538 161.638155 
L 154.537298 140.164711 
L 154.942058 147.390499 
L 155.346818 133.515214 
L 155.751578 136.591715 
L 156.156338 122.308594 
L 156.561098 159.572378 
L 156.965858 164.422078 
L 157.775378 134.552536 
L 159.394418 170.051986 
L 159.799178 152.506179 
L 160.203938 164.413212 
L 160.608698 172.419207 
L 161.013458 161.975063 
L 161.418218 144.136678 
L 162.227737 166.416927 
L 162.632497 149.731122 
L 163.037257 159.492584 
L 163.442017 127.335614 
L 163.846777 108.406712 
L 164.656297 152.240199 
L 165.465817 176.275915 
L 165.870577 158.508458 
L 166.275337 154.65175 
L 167.084857 94.416169 
L 167.489617 135.235217 
L 167.894377 146.424105 
L 168.299137 165.512595 
L 168.703897 172.073433 
L 169.108657 149.518338 
L 169.513417 151.628445 
L 169.918177 159.909286 
L 170.322937 165.592389 
L 170.727697 158.207014 
L 171.132457 140.271103 
L 171.537217 143.22348 
L 171.941977 163.393622 
L 172.346736 172.818177 
L 172.751496 175.823749 
L 173.156256 159.882688 
L 173.965776 150.493597 
L 174.370536 144.562246 
L 174.775296 144.668638 
L 175.180056 152.266797 
L 175.584816 144.64204 
L 175.989576 128.479328 
L 176.394336 141.609869 
L 177.203856 155.165978 
L 177.608616 167.560641 
L 178.013376 168.553632 
L 178.418136 171.958175 
L 179.632416 163.500014 
L 180.037176 165.991359 
L 180.846696 180.150356 
L 181.656216 148.942048 
L 182.060975 146.264517 
L 182.465735 148.011118 
L 182.870495 139.490896 
L 183.275255 139.916464 
L 183.680015 111.571873 
L 184.489535 154.039996 
L 184.894295 149.04844 
L 185.299055 150.014834 
L 185.703815 169.564356 
L 186.108575 166.195277 
L 186.513335 141.184301 
L 186.918095 125.544683 
L 187.322855 147.629881 
L 187.727615 141.973375 
L 188.132375 139.996258 
L 188.537135 165.485997 
L 188.941895 169.058994 
L 189.346655 156.025979 
L 189.751415 157.852374 
L 190.156175 151.220609 
L 190.560935 162.702075 
L 190.965695 168.642292 
L 191.370455 177.286639 
L 192.584734 111.864451 
L 192.989494 121.005293 
L 193.799014 151.814631 
L 194.203774 150.059164 
L 194.608534 150.919165 
L 195.013294 163.969912 
L 195.418054 158.978356 
L 195.822814 150.06803 
L 196.632334 167.303527 
L 197.037094 166.753835 
L 197.441854 168.385178 
L 197.846614 172.747249 
L 198.251374 175.33612 
L 198.656134 154.944328 
L 199.060894 117.024461 
L 199.870414 134.712124 
L 200.275174 132.68181 
L 200.679934 122.042615 
L 201.084694 116.492501 
L 201.489454 133.736864 
L 202.298973 104.585467 
L 202.703733 124.986125 
L 203.108493 134.951505 
L 203.513253 149.704524 
L 203.918013 141.973375 
L 204.322773 150.617721 
L 204.727533 145.599567 
L 205.537053 113.885898 
L 205.941813 130.199331 
L 206.346573 106.465059 
L 206.751333 99.257004 
L 207.156093 111.988575 
L 207.560853 107.608772 
L 207.965613 75.770979 
L 208.370373 96.668133 
L 208.775133 95.586481 
L 209.179893 97.687722 
L 209.989413 93.361116 
L 210.798933 126.324891 
L 211.203693 97.208958 
L 211.608453 137.549242 
L 212.013212 149.420812 
L 212.417972 133.852122 
L 212.822732 109.656817 
L 213.227492 138.382646 
L 213.632252 129.507784 
L 214.037012 82.331816 
L 214.441772 56.797746 
L 214.846532 77.464384 
L 215.251292 105.649387 
L 215.656052 97.40401 
L 216.060812 111.846719 
L 216.465572 113.930228 
L 216.870332 43.330297 
L 217.275092 60.991363 
L 217.679852 97.120298 
L 218.084612 84.246871 
L 218.489372 90.656987 
L 219.703652 119.755187 
L 220.108412 134.827382 
L 220.513172 117.698276 
L 220.917932 109.195786 
L 221.322692 88.963582 
L 222.132211 116.394975 
L 222.536971 78.421912 
L 222.941731 86.153061 
L 223.346491 98.077826 
L 223.751251 83.378004 
L 224.156011 62.7025 
L 224.560771 67.15323 
L 224.965531 94.292045 
L 225.370291 77.570776 
L 225.775051 110.605479 
L 226.584571 87.695744 
L 226.989331 21.183038 
L 227.394091 56.292384 
L 227.394091 56.292384 
" clip-path="url(#p52b041d4eb)" style="fill: none; stroke: #1f77b4; stroke-width: 1.5; stroke-linecap: square"/>
   </g>
   <g id="patch_3">
    <path d="M 38.27 188.12 
L 38.27 12.787826 
" style="fill: none; stroke: #000000; stroke-width: 0.8; stroke-linejoin: miter; stroke-linecap: square"/>
   </g>
   <g id="patch_4">
    <path d="M 236.4 188.12 
L 236.4 12.787826 
" style="fill: none; stroke: #000000; stroke-width: 0.8; stroke-linejoin: miter; stroke-linecap: square"/>
   </g>
   <g id="patch_5">
    <path d="M 38.27 188.12 
L 236.4 188.12 
" style="fill: none; stroke: #000000; stroke-width: 0.8; stroke-linejoin: miter; stroke-linecap: square"/>
   </g>
   <g id="patch_6">
    <path d="M 38.27 12.787826 
L 236.4 12.787826 
" style="fill: none; stroke: #000000; stroke-width: 0.8; stroke-linejoin: miter; stroke-linecap: square"/>
   </g>
  </g>
  <g id="axes_2">
   <g id="patch_7">
    <path d="M 274.67 188.12 
L 472.8 188.12 
L 472.8 12.787826 
L 274.67 12.787826 
z
" style="fill: #ffffff"/>
   </g>
   <g id="matplotlib.axis_3">
    <g id="xtick_6">
     <g id="line2d_11">
      <g>
       <use xlink:href="#mcd641d48a2" x="283.675909" y="188.12" style="stroke: #000000; stroke-width: 0.8"/>
      </g>
     </g>
     <g id="text_11">
      <!-- 0 -->
      <g transform="translate(280.494659 202.718437) scale(0.1 -0.1)">
       <use xlink:href="#DejaVuSans-30"/>
      </g>
     </g>
    </g>
    <g id="xtick_7">
     <g id="line2d_12">
      <g>
       <use xlink:href="#mcd641d48a2" x="324.151905" y="188.12" style="stroke: #000000; stroke-width: 0.8"/>
      </g>
     </g>
     <g id="text_12">
      <!-- 100 -->
      <g transform="translate(314.608155 202.718437) scale(0.1 -0.1)">
       <use xlink:href="#DejaVuSans-31"/>
       <use xlink:href="#DejaVuSans-30" x="63.623047"/>
       <use xlink:href="#DejaVuSans-30" x="127.246094"/>
      </g>
     </g>
    </g>
    <g id="xtick_8">
     <g id="line2d_13">
      <g>
       <use xlink:href="#mcd641d48a2" x="364.627901" y="188.12" style="stroke: #000000; stroke-width: 0.8"/>
      </g>
     </g>
     <g id="text_13">
      <!-- 200 -->
      <g transform="translate(355.084151 202.718437) scale(0.1 -0.1)">
       <use xlink:href="#DejaVuSans-32"/>
       <use xlink:href="#DejaVuSans-30" x="63.623047"/>
       <use xlink:href="#DejaVuSans-30" x="127.246094"/>
      </g>
     </g>
    </g>
    <g id="xtick_9">
     <g id="line2d_14">
      <g>
       <use xlink:href="#mcd641d48a2" x="405.103897" y="188.12" style="stroke: #000000; stroke-width: 0.8"/>
      </g>
     </g>
     <g id="text_14">
      <!-- 300 -->
      <g transform="translate(395.560147 202.718437) scale(0.1 -0.1)">
       <use xlink:href="#DejaVuSans-33"/>
       <use xlink:href="#DejaVuSans-30" x="63.623047"/>
       <use xlink:href="#DejaVuSans-30" x="127.246094"/>
      </g>
     </g>
    </g>
    <g id="xtick_10">
     <g id="line2d_15">
      <g>
       <use xlink:href="#mcd641d48a2" x="445.579893" y="188.12" style="stroke: #000000; stroke-width: 0.8"/>
      </g>
     </g>
     <g id="text_15">
      <!-- 400 -->
      <g transform="translate(436.036143 202.718437) scale(0.1 -0.1)">
       <use xlink:href="#DejaVuSans-34"/>
       <use xlink:href="#DejaVuSans-30" x="63.623047"/>
       <use xlink:href="#DejaVuSans-30" x="127.246094"/>
      </g>
     </g>
    </g>
   </g>
   <g id="matplotlib.axis_4">
    <g id="ytick_5">
     <g id="line2d_16">
      <g>
       <use xlink:href="#m62e18f3de8" x="274.67" y="155.77262" style="stroke: #000000; stroke-width: 0.8"/>
      </g>
     </g>
     <g id="text_16">
      <!-- 2 -->
      <g transform="translate(261.3075 159.571839) scale(0.1 -0.1)">
       <use xlink:href="#DejaVuSans-32"/>
      </g>
     </g>
    </g>
    <g id="ytick_6">
     <g id="line2d_17">
      <g>
       <use xlink:href="#m62e18f3de8" x="274.67" y="118.268412" style="stroke: #000000; stroke-width: 0.8"/>
      </g>
     </g>
     <g id="text_17">
      <!-- 4 -->
      <g transform="translate(261.3075 122.067631) scale(0.1 -0.1)">
       <use xlink:href="#DejaVuSans-34"/>
      </g>
     </g>
    </g>
    <g id="ytick_7">
     <g id="line2d_18">
      <g>
       <use xlink:href="#m62e18f3de8" x="274.67" y="80.764204" style="stroke: #000000; stroke-width: 0.8"/>
      </g>
     </g>
     <g id="text_18">
      <!-- 6 -->
      <g transform="translate(261.3075 84.563422) scale(0.1 -0.1)">
       <use xlink:href="#DejaVuSans-36"/>
      </g>
     </g>
    </g>
    <g id="ytick_8">
     <g id="line2d_19">
      <g>
       <use xlink:href="#m62e18f3de8" x="274.67" y="43.259995" style="stroke: #000000; stroke-width: 0.8"/>
      </g>
     </g>
     <g id="text_19">
      <!-- 8 -->
      <g transform="translate(261.3075 47.059214) scale(0.1 -0.1)">
       <use xlink:href="#DejaVuSans-38"/>
      </g>
     </g>
    </g>
    <g id="text_20">
     <!-- max -->
     <g transform="translate(255.227812 111.347663) rotate(-90) scale(0.1 -0.1)">
      <defs>
       <path id="DejaVuSans-6d" d="M 3328 2828 
Q 3544 3216 3844 3400 
Q 4144 3584 4550 3584 
Q 5097 3584 5394 3201 
Q 5691 2819 5691 2113 
L 5691 0 
L 5113 0 
L 5113 2094 
Q 5113 2597 4934 2840 
Q 4756 3084 4391 3084 
Q 3944 3084 3684 2787 
Q 3425 2491 3425 1978 
L 3425 0 
L 2847 0 
L 2847 2094 
Q 2847 2600 2669 2842 
Q 2491 3084 2119 3084 
Q 1678 3084 1418 2786 
Q 1159 2488 1159 1978 
L 1159 0 
L 581 0 
L 581 3500 
L 1159 3500 
L 1159 2956 
Q 1356 3278 1631 3431 
Q 1906 3584 2284 3584 
Q 2666 3584 2933 3390 
Q 3200 3197 3328 2828 
z
" transform="scale(0.015625)"/>
       <path id="DejaVuSans-78" d="M 3513 3500 
L 2247 1797 
L 3578 0 
L 2900 0 
L 1881 1375 
L 863 0 
L 184 0 
L 1544 1831 
L 300 3500 
L 978 3500 
L 1906 2253 
L 2834 3500 
L 3513 3500 
z
" transform="scale(0.015625)"/>
      </defs>
      <use xlink:href="#DejaVuSans-6d"/>
      <use xlink:href="#DejaVuSans-61" x="97.412109"/>
      <use xlink:href="#DejaVuSans-78" x="158.691406"/>
     </g>
    </g>
   </g>
   <g id="line2d_20">
    <path d="M 283.675909 163.085941 
L 284.080669 162.148336 
L 284.485429 162.335857 
L 284.890189 96.515971 
L 285.294949 111.517654 
L 286.104469 94.265719 
L 286.509229 106.079544 
L 286.913989 134.207701 
L 287.318749 93.703156 
L 288.128269 144.708879 
L 289.342549 124.644127 
L 289.747308 123.894043 
L 290.152068 142.458626 
L 290.556828 151.459636 
L 290.961588 163.836025 
L 291.366348 139.45829 
L 291.771108 90.140256 
L 292.175868 101.954081 
L 292.580628 100.828955 
L 292.985388 114.142949 
L 293.794908 126.89438 
L 294.199668 63.88731 
L 294.604428 73.450883 
L 295.009188 117.705849 
L 295.413948 118.455933 
L 295.818708 108.329797 
L 296.223468 106.267065 
L 297.032988 81.88933 
L 297.437748 111.142612 
L 297.842508 118.455933 
L 298.652028 149.771947 
L 299.056788 125.956775 
L 299.866307 149.959468 
L 300.271067 131.019843 
L 300.675827 123.143959 
L 301.080587 134.770264 
L 301.485347 133.645137 
L 301.890107 141.3335 
L 302.294867 133.645137 
L 302.699627 118.080891 
L 303.104387 122.581396 
L 303.509147 133.270095 
L 303.913907 161.585773 
L 304.318667 113.392865 
L 304.723427 129.894717 
L 305.128187 137.7706 
L 305.532947 110.017486 
L 305.937707 122.581396 
L 306.747227 106.454586 
L 307.151987 112.267739 
M 307.961507 45.697769 
L 308.366267 70.638067 
L 308.771027 121.45627 
L 309.175787 130.832322 
L 309.580546 130.45728 
L 309.985306 142.458626 
L 310.390066 108.517318 
L 310.794826 93.140592 
L 311.199586 91.452903 
L 312.009106 137.958121 
L 312.413866 112.642781 
L 312.818626 110.580049 
L 313.223386 120.706186 
L 313.628146 145.083921 
L 314.032906 91.265382 
L 314.437666 105.892023 
L 314.842426 128.582069 
L 315.247186 166.836362 
L 315.651946 138.145642 
L 316.056706 129.332153 
L 316.461466 106.642107 
L 316.866226 114.33047 
L 317.270986 106.642107 
L 317.675746 134.020179 
L 318.080506 135.145306 
L 318.890026 86.389835 
L 319.294785 83.014456 
L 319.699545 76.263699 
L 320.104305 67.637731 
L 320.509065 83.952061 
L 320.913825 76.076178 
L 321.318585 76.076178 
M 322.128105 23.007723 
L 322.532865 58.824242 
L 322.937625 116.768244 
L 323.342385 130.45728 
L 323.747145 132.33249 
L 324.151905 77.388825 
L 324.556665 74.200967 
L 324.961425 125.206691 
L 325.366185 150.522031 
L 325.770945 137.208037 
L 326.175705 142.083584 
L 326.580465 140.395895 
L 326.985225 141.896063 
M 327.794745 72.88832 
L 328.199505 64.824915 
L 328.604265 66.700126 
L 329.009025 98.953745 
L 329.413784 154.647494 
L 329.818544 136.645474 
L 330.223304 137.7706 
L 330.628064 142.458626 
L 331.437584 134.020179 
L 332.247104 170.024219 
L 332.651864 165.523714 
L 333.056624 165.148672 
L 333.461384 165.148672 
L 333.866144 53.573653 
L 334.270904 63.512268 
L 334.675664 103.079208 
L 335.080424 101.76656 
L 335.485184 109.454923 
L 335.889944 132.33249 
L 336.294704 109.829965 
L 336.699464 104.204334 
L 337.508984 120.893707 
L 337.913744 28.633354 
L 338.318504 21.507555 
L 338.723264 106.454586 
L 339.128023 104.954418 
L 339.532783 93.140592 
L 339.937543 110.76757 
L 340.342303 84.139582 
L 340.747063 85.827272 
L 341.151823 95.578366 
L 341.556583 97.453576 
L 341.961343 116.580723 
L 342.366103 114.33047 
L 342.770863 106.642107 
L 343.175623 108.329797 
L 343.580383 113.205344 
L 343.985143 106.642107 
L 344.389903 147.521694 
L 344.794663 141.708542 
L 345.199423 92.578029 
L 345.604183 123.894043 
L 346.008943 119.206017 
L 346.818463 155.77262 
L 347.223223 158.022873 
L 347.627983 161.023209 
L 348.032743 146.396568 
L 348.437503 151.084594 
L 348.842263 154.084931 
L 349.247022 154.459973 
L 349.651782 142.646147 
L 350.056542 143.771274 
L 350.461302 135.332827 
L 350.866062 140.020853 
L 351.675582 82.076851 
L 352.080342 93.703156 
L 352.485102 62.949705 
L 352.889862 108.89236 
L 353.294622 128.957111 
L 353.699382 132.895053 
L 354.104142 140.208374 
L 354.508902 161.210731 
L 354.913662 166.46132 
L 355.318422 160.460646 
L 355.723182 146.209047 
L 356.127942 145.834005 
L 356.532702 157.46031 
L 356.937462 136.270432 
L 357.342222 134.020179 
L 358.151742 152.209721 
L 358.556502 147.146652 
L 359.366021 158.585436 
L 359.770781 125.956775 
L 360.580301 145.458963 
L 360.985061 159.147999 
L 361.389821 131.394885 
L 361.794581 140.020853 
L 362.199341 159.710562 
L 362.604101 162.523378 
L 363.008861 148.084258 
L 363.413621 153.147326 
L 363.818381 155.210057 
L 364.223141 152.772284 
L 364.627901 164.211067 
L 365.032661 145.646484 
L 365.437421 154.272452 
L 365.842181 140.020853 
L 366.246941 139.45829 
L 366.651701 82.076851 
L 367.056461 106.642107 
L 367.461221 142.083584 
L 367.865981 149.021863 
L 368.270741 145.834005 
L 368.675501 136.457953 
L 369.08026 112.830302 
L 369.48502 122.393875 
L 369.88978 144.333837 
L 370.29454 87.32744 
L 370.6993 110.955091 
L 371.10406 141.3335 
L 371.50882 142.646147 
L 371.91358 110.580049 
L 372.31834 101.579039 
L 372.7231 136.645474 
L 373.12786 159.147999 
L 373.53262 167.023883 
L 373.93738 169.836698 
L 374.34214 174.337203 
L 374.7469 156.710226 
L 375.55642 161.210731 
L 375.96118 160.648167 
L 376.36594 149.209384 
L 376.7707 160.273125 
L 377.17546 143.771274 
L 377.58022 87.890003 
L 377.98498 94.265719 
L 378.794499 140.958458 
L 379.199259 136.082911 
L 379.604019 133.457616 
L 380.008779 158.210394 
L 380.413539 153.709889 
L 380.818299 158.022873 
L 381.627819 148.4593 
L 382.032579 175.649851 
L 382.437339 172.461993 
L 383.246859 177.712582 
L 383.651619 174.337203 
L 384.056379 155.397578 
L 384.461139 149.584426 
L 385.270659 167.211404 
L 385.675419 149.396905 
L 386.080179 148.834342 
L 386.484939 169.274135 
L 387.294459 162.523378 
L 387.699219 140.208374 
L 388.103979 150.709552 
L 388.508739 134.582743 
L 388.913498 148.4593 
L 389.318258 126.706859 
L 389.723018 135.520348 
L 390.127778 156.522704 
L 390.532538 161.585773 
L 390.937298 136.832995 
L 391.342058 148.084258 
L 391.746818 127.831985 
L 392.151578 131.019843 
L 392.556338 113.205344 
L 392.961098 150.522031 
L 393.365858 164.77363 
L 394.175378 127.644464 
L 394.580138 146.959131 
L 394.984898 153.522368 
L 395.389658 163.460983 
L 395.794418 159.898083 
L 396.199178 154.835015 
L 396.603938 159.710562 
L 397.008698 173.962161 
L 397.413458 161.773294 
L 397.818218 141.896063 
L 398.222978 152.959805 
L 398.627737 167.211404 
L 399.032497 146.396568 
L 399.437257 146.959131 
L 400.246777 106.829628 
L 400.651537 117.143286 
L 401.056297 147.709216 
L 401.461057 162.710899 
L 401.865817 171.524388 
L 402.675337 138.895727 
L 403.080097 112.267739 
L 403.484857 73.263362 
L 403.889617 135.332827 
L 404.294377 140.208374 
L 404.699137 165.898757 
L 405.103897 169.086614 
L 405.508657 150.33451 
L 405.913417 150.709552 
L 406.318177 161.210731 
L 406.722937 165.898757 
L 407.127697 159.898083 
L 407.532457 137.395558 
L 407.937217 141.896063 
L 408.746736 173.962161 
L 409.151496 176.962498 
L 409.556256 159.523041 
L 410.365776 153.147326 
L 411.175296 141.3335 
L 411.580056 150.146989 
L 411.984816 143.021189 
L 412.389576 132.707532 
L 412.794336 138.895727 
L 413.199096 152.584763 
L 413.603856 149.959468 
L 414.008616 166.273799 
L 414.413376 165.898757 
L 414.818136 171.89943 
L 415.627656 166.836362 
L 416.032416 162.148336 
L 416.437176 163.085941 
L 416.841936 167.586446 
L 417.246696 180.150356 
L 418.056216 142.271105 
L 418.460975 136.457953 
L 418.865735 146.021526 
L 419.270495 122.581396 
L 419.675255 133.832658 
L 420.080015 89.765214 
L 420.889535 153.709889 
L 421.294295 139.45829 
L 421.699055 143.208711 
L 422.103815 166.273799 
L 422.913335 137.958121 
L 423.318095 123.894043 
L 423.722855 143.958795 
L 424.127615 136.832995 
L 424.532375 135.332827 
L 424.937135 155.960141 
L 425.341895 164.961151 
L 425.746655 150.709552 
L 426.151415 155.960141 
L 426.556175 154.647494 
L 426.960935 158.960478 
L 427.770455 176.587456 
L 428.175215 127.456943 
L 428.579974 117.89337 
L 428.984734 76.638741 
L 430.199014 153.89741 
L 430.603774 151.272115 
L 431.008534 147.334173 
L 431.413294 161.773294 
L 431.818054 153.147326 
L 432.222814 149.396905 
L 433.032334 167.211404 
L 433.437094 166.273799 
L 433.841854 168.33653 
L 434.246614 174.337203 
L 434.651374 175.837372 
L 435.056134 146.209047 
L 435.460894 94.828282 
L 436.270414 136.457953 
L 436.675174 130.269759 
L 437.079934 106.079544 
L 437.484694 101.76656 
L 437.889454 135.145306 
L 438.294213 81.514288 
L 438.698973 97.453576 
L 439.103733 120.706186 
L 439.508493 127.081901 
L 439.913253 147.896737 
L 440.318013 137.7706 
L 440.722773 149.396905 
L 441.127533 143.208711 
L 441.532293 132.33249 
L 441.937053 106.079544 
L 442.341813 134.020179 
L 442.746573 94.45324 
L 443.151333 94.45324 
L 443.556093 115.080554 
L 443.960853 87.890003 
L 444.365613 82.264372 
L 444.770373 95.953408 
L 445.175133 97.266055 
L 445.579893 91.265382 
L 445.984653 91.077861 
L 446.389413 86.014793 
L 446.794173 107.579713 
L 447.198933 122.768917 
L 447.603693 76.638741 
L 448.008453 136.270432 
L 448.413212 147.146652 
L 449.222732 99.141266 
L 449.627492 136.082911 
L 450.032252 96.140929 
L 450.437012 74.76353 
L 450.841772 62.387142 
L 451.651292 96.703492 
L 452.056052 98.01614 
L 452.460812 109.642444 
L 452.865572 105.516981 
L 453.270332 45.322727 
L 453.675092 51.3234 
L 454.079852 99.328787 
L 454.484612 86.389835 
L 454.889372 86.014793 
L 456.103652 124.456606 
L 456.508412 131.207364 
L 456.913172 108.517318 
L 457.317932 99.516308 
L 457.722692 67.075168 
L 458.127451 104.391855 
L 458.532211 116.205681 
L 458.936971 62.574663 
L 459.746491 99.703829 
L 460.151251 74.951051 
L 460.556011 59.199284 
L 460.960771 60.886973 
L 461.365531 96.891013 
L 461.770291 72.700799 
L 462.175051 105.516981 
L 462.984571 68.950378 
L 463.389331 20.75747 
L 463.794091 51.885963 
L 463.794091 51.885963 
" clip-path="url(#pd2a2b7bfba)" style="fill: none; stroke: #1f77b4; stroke-width: 1.5; stroke-linecap: square"/>
   </g>
   <g id="patch_8">
    <path d="M 274.67 188.12 
L 274.67 12.787826 
" style="fill: none; stroke: #000000; stroke-width: 0.8; stroke-linejoin: miter; stroke-linecap: square"/>
   </g>
   <g id="patch_9">
    <path d="M 472.8 188.12 
L 472.8 12.787826 
" style="fill: none; stroke: #000000; stroke-width: 0.8; stroke-linejoin: miter; stroke-linecap: square"/>
   </g>
   <g id="patch_10">
    <path d="M 274.67 188.12 
L 472.8 188.12 
" style="fill: none; stroke: #000000; stroke-width: 0.8; stroke-linejoin: miter; stroke-linecap: square"/>
   </g>
   <g id="patch_11">
    <path d="M 274.67 12.787826 
L 472.8 12.787826 
" style="fill: none; stroke: #000000; stroke-width: 0.8; stroke-linejoin: miter; stroke-linecap: square"/>
   </g>
  </g>
  <g id="axes_3">
   <g id="patch_12">
    <path d="M 511.07 188.12 
L 709.2 188.12 
L 709.2 12.787826 
L 511.07 12.787826 
z
" style="fill: #ffffff"/>
   </g>
   <g id="matplotlib.axis_5">
    <g id="xtick_11">
     <g id="line2d_21">
      <g>
       <use xlink:href="#mcd641d48a2" x="520.075909" y="188.12" style="stroke: #000000; stroke-width: 0.8"/>
      </g>
     </g>
     <g id="text_21">
      <!-- 0 -->
      <g transform="translate(516.894659 202.718437) scale(0.1 -0.1)">
       <use xlink:href="#DejaVuSans-30"/>
      </g>
     </g>
    </g>
    <g id="xtick_12">
     <g id="line2d_22">
      <g>
       <use xlink:href="#mcd641d48a2" x="560.551905" y="188.12" style="stroke: #000000; stroke-width: 0.8"/>
      </g>
     </g>
     <g id="text_22">
      <!-- 100 -->
      <g transform="translate(551.008155 202.718437) scale(0.1 -0.1)">
       <use xlink:href="#DejaVuSans-31"/>
       <use xlink:href="#DejaVuSans-30" x="63.623047"/>
       <use xlink:href="#DejaVuSans-30" x="127.246094"/>
      </g>
     </g>
    </g>
    <g id="xtick_13">
     <g id="line2d_23">
      <g>
       <use xlink:href="#mcd641d48a2" x="601.027901" y="188.12" style="stroke: #000000; stroke-width: 0.8"/>
      </g>
     </g>
     <g id="text_23">
      <!-- 200 -->
      <g transform="translate(591.484151 202.718437) scale(0.1 -0.1)">
       <use xlink:href="#DejaVuSans-32"/>
       <use xlink:href="#DejaVuSans-30" x="63.623047"/>
       <use xlink:href="#DejaVuSans-30" x="127.246094"/>
      </g>
     </g>
    </g>
    <g id="xtick_14">
     <g id="line2d_24">
      <g>
       <use xlink:href="#mcd641d48a2" x="641.503897" y="188.12" style="stroke: #000000; stroke-width: 0.8"/>
      </g>
     </g>
     <g id="text_24">
      <!-- 300 -->
      <g transform="translate(631.960147 202.718437) scale(0.1 -0.1)">
       <use xlink:href="#DejaVuSans-33"/>
       <use xlink:href="#DejaVuSans-30" x="63.623047"/>
       <use xlink:href="#DejaVuSans-30" x="127.246094"/>
      </g>
     </g>
    </g>
    <g id="xtick_15">
     <g id="line2d_25">
      <g>
       <use xlink:href="#mcd641d48a2" x="681.979893" y="188.12" style="stroke: #000000; stroke-width: 0.8"/>
      </g>
     </g>
     <g id="text_25">
      <!-- 400 -->
      <g transform="translate(672.436143 202.718437) scale(0.1 -0.1)">
       <use xlink:href="#DejaVuSans-34"/>
       <use xlink:href="#DejaVuSans-30" x="63.623047"/>
       <use xlink:href="#DejaVuSans-30" x="127.246094"/>
      </g>
     </g>
    </g>
   </g>
   <g id="matplotlib.axis_6">
    <g id="ytick_9">
     <g id="line2d_26">
      <g>
       <use xlink:href="#m62e18f3de8" x="511.07" y="188.12" style="stroke: #000000; stroke-width: 0.8"/>
      </g>
     </g>
     <g id="text_26">
      <!-- 0 -->
      <g transform="translate(497.7075 191.919219) scale(0.1 -0.1)">
       <use xlink:href="#DejaVuSans-30"/>
      </g>
     </g>
    </g>
    <g id="ytick_10">
     <g id="line2d_27">
      <g>
       <use xlink:href="#m62e18f3de8" x="511.07" y="153.469373" style="stroke: #000000; stroke-width: 0.8"/>
      </g>
     </g>
     <g id="text_27">
      <!-- 2 -->
      <g transform="translate(497.7075 157.268591) scale(0.1 -0.1)">
       <use xlink:href="#DejaVuSans-32"/>
      </g>
     </g>
    </g>
    <g id="ytick_11">
     <g id="line2d_28">
      <g>
       <use xlink:href="#m62e18f3de8" x="511.07" y="118.818745" style="stroke: #000000; stroke-width: 0.8"/>
      </g>
     </g>
     <g id="text_28">
      <!-- 4 -->
      <g transform="translate(497.7075 122.617964) scale(0.1 -0.1)">
       <use xlink:href="#DejaVuSans-34"/>
      </g>
     </g>
    </g>
    <g id="ytick_12">
     <g id="line2d_29">
      <g>
       <use xlink:href="#m62e18f3de8" x="511.07" y="84.168118" style="stroke: #000000; stroke-width: 0.8"/>
      </g>
     </g>
     <g id="text_29">
      <!-- 6 -->
      <g transform="translate(497.7075 87.967337) scale(0.1 -0.1)">
       <use xlink:href="#DejaVuSans-36"/>
      </g>
     </g>
    </g>
    <g id="ytick_13">
     <g id="line2d_30">
      <g>
       <use xlink:href="#m62e18f3de8" x="511.07" y="49.517491" style="stroke: #000000; stroke-width: 0.8"/>
      </g>
     </g>
     <g id="text_30">
      <!-- 8 -->
      <g transform="translate(497.7075 53.31671) scale(0.1 -0.1)">
       <use xlink:href="#DejaVuSans-38"/>
      </g>
     </g>
    </g>
    <g id="ytick_14">
     <g id="line2d_31">
      <g>
       <use xlink:href="#m62e18f3de8" x="511.07" y="14.866864" style="stroke: #000000; stroke-width: 0.8"/>
      </g>
     </g>
     <g id="text_31">
      <!-- 10 -->
      <g transform="translate(491.345 18.666082) scale(0.1 -0.1)">
       <use xlink:href="#DejaVuSans-31"/>
       <use xlink:href="#DejaVuSans-30" x="63.623047"/>
      </g>
     </g>
    </g>
   </g>
   <g id="line2d_32">
    <path d="M 520.075909 173.73999 
L 520.480669 167.849383 
L 520.885429 173.913243 
L 521.290189 159.706486 
L 521.694949 128.001162 
L 522.099709 126.441883 
L 522.504469 117.086214 
L 523.313989 143.94045 
L 523.718749 133.891768 
L 524.123509 148.964791 
L 524.528269 151.563588 
L 524.933029 151.910095 
L 525.337789 140.648641 
L 525.742549 142.034666 
L 526.147308 145.499728 
L 526.552068 152.949613 
L 526.956828 163.344802 
L 527.361588 168.888902 
L 528.171108 150.00431 
L 528.575868 125.055858 
L 528.980628 119.511758 
L 529.385388 125.922124 
L 529.790148 159.533233 
L 530.194908 161.092511 
L 530.599668 129.56044 
L 531.004428 128.001162 
L 531.813948 146.885754 
L 532.218708 144.633463 
L 532.623468 131.466224 
L 533.028228 129.040681 
L 533.837748 133.025503 
L 534.647268 147.23226 
L 535.052028 162.998295 
L 535.456788 154.682145 
L 535.861547 150.350816 
L 536.266307 162.13203 
L 536.671067 165.943599 
L 537.075827 144.46021 
L 537.480587 159.186726 
L 537.885347 148.271779 
L 538.290107 150.697323 
L 538.694867 156.414676 
L 539.099627 135.10454 
L 539.504387 144.633463 
L 539.909147 162.13203 
L 540.313907 164.90408 
L 540.718667 147.405513 
L 541.123427 142.727678 
L 541.528187 151.563588 
L 541.932947 148.618285 
L 542.337707 148.618285 
L 542.742467 143.767197 
L 543.147227 134.758034 
L 543.551987 141.341653 
M 544.361507 88.499447 
L 544.766267 122.976821 
L 545.171027 142.207919 
L 545.575787 146.019488 
L 545.980546 147.752019 
L 546.385306 152.77636 
L 546.790066 139.782375 
L 547.194826 116.912961 
L 547.599586 122.803568 
L 548.004346 141.1684 
L 548.409106 144.979969 
L 548.813866 139.782375 
L 549.218626 125.575618 
L 549.623386 147.752019 
L 550.028146 161.265764 
L 550.432906 164.037814 
L 550.837666 146.365994 
L 551.242426 162.13203 
L 551.647186 171.834205 
L 552.051946 171.141193 
L 552.456706 141.514906 
L 552.861466 144.286957 
L 553.266226 128.001162 
L 553.670986 134.411528 
L 554.075746 150.524069 
L 554.480506 154.682145 
L 554.885266 137.530084 
L 555.290026 129.387187 
L 555.694785 113.621151 
L 556.504305 99.7609 
L 556.909065 106.34452 
L 557.313825 101.146926 
L 557.718585 106.691026 
M 558.528105 74.292689 
L 558.932865 120.378024 
L 559.337625 148.618285 
L 559.742385 151.390335 
L 560.147145 158.666967 
L 560.551905 155.721664 
L 560.956665 124.01634 
L 561.361425 153.122866 
L 561.766185 158.320461 
L 562.170945 155.201904 
L 562.575705 153.989132 
L 562.980465 154.855398 
L 563.385225 148.271779 
M 564.194745 100.453913 
L 564.599505 129.387187 
L 565.004265 128.520921 
L 565.409025 157.454195 
L 565.813784 167.502877 
L 566.218544 150.350816 
L 567.028064 160.226245 
L 567.432824 148.098526 
L 567.837584 150.870576 
L 568.242344 168.888902 
L 568.647104 173.046977 
L 569.051864 173.73999 
L 569.456624 172.353965 
L 569.861384 172.353965 
L 570.266144 161.265764 
L 570.670904 141.861413 
L 571.075664 162.825042 
L 571.480424 123.49658 
L 571.885184 137.703337 
L 572.289944 139.782375 
L 572.694704 136.144059 
L 573.099464 129.733693 
L 573.504224 131.985984 
L 573.908984 142.554425 
L 574.313744 118.645492 
L 574.718504 109.982836 
L 575.123264 128.347668 
L 575.528023 129.56044 
L 575.932783 115.700189 
L 576.337543 138.049844 
L 576.742303 114.66067 
L 577.147063 111.88862 
L 577.551823 117.779227 
L 577.956583 144.633463 
L 578.361343 151.563588 
L 578.766103 128.867427 
L 579.170863 129.56044 
L 579.575623 126.441883 
L 580.385143 143.593944 
L 580.789903 159.013473 
L 581.194663 156.06817 
L 581.599423 138.916109 
L 582.004183 148.964791 
L 582.408943 138.39635 
L 582.813703 156.241423 
L 583.218463 160.746004 
L 584.027983 165.597092 
L 584.432743 156.414676 
L 584.837503 160.746004 
L 585.242263 161.785523 
L 585.647022 164.211067 
L 586.051782 152.77636 
L 586.456542 161.785523 
L 586.861302 148.964791 
L 587.266062 151.563588 
L 587.670822 145.846235 
L 588.075582 109.289823 
L 588.480342 123.49658 
L 588.885102 106.517773 
L 589.289862 136.317312 
L 589.694622 156.761182 
L 590.099382 157.800701 
L 590.504142 159.533233 
L 590.908902 173.566737 
L 591.313662 173.73999 
L 591.718422 166.463358 
L 592.123182 166.116852 
L 592.527942 158.320461 
L 592.932702 163.518055 
L 593.337462 159.533233 
L 593.742222 143.767197 
L 594.146982 157.107689 
L 594.551742 164.90408 
L 594.956502 155.894917 
L 595.361261 166.463358 
L 595.766021 165.943599 
L 596.575541 148.445032 
L 596.980301 160.919258 
L 597.385061 164.38432 
L 597.789821 164.730827 
L 598.194581 161.958776 
L 598.599341 168.022636 
L 599.004101 166.636611 
L 599.408861 165.943599 
L 599.813621 171.314446 
L 600.218381 164.38432 
L 600.623141 161.092511 
L 601.027901 172.007458 
L 601.432661 170.621433 
L 601.837421 157.973954 
L 602.242181 159.879739 
L 602.646941 153.469373 
L 603.051701 154.682145 
L 603.456461 136.663819 
L 603.861221 170.44818 
L 604.265981 168.542396 
L 604.670741 156.934435 
L 605.075501 157.454195 
L 605.48026 135.10454 
L 605.88502 147.059007 
L 606.28978 169.928421 
L 606.69454 169.928421 
L 607.0993 150.697323 
L 607.50406 152.256601 
L 607.90882 155.721664 
L 608.31358 148.271779 
L 608.71834 135.10454 
L 609.1231 159.013473 
L 609.52786 166.983117 
L 609.93262 168.195889 
L 610.74214 174.259749 
L 611.1469 172.527218 
L 611.55166 166.809864 
L 611.95642 170.96794 
L 612.36118 163.518055 
L 612.76594 159.533233 
L 613.1707 168.195889 
L 613.57546 161.092511 
L 613.98022 145.846235 
L 614.38498 136.144059 
L 614.78974 139.609122 
L 615.194499 165.077333 
L 615.599259 166.983117 
L 616.004019 154.335638 
L 616.408779 169.408661 
L 617.218299 165.770345 
L 617.623059 165.077333 
L 618.027819 170.96794 
L 618.432579 179.28409 
L 619.242099 177.378306 
L 619.646859 181.016621 
L 620.051619 182.402647 
L 620.861139 160.052992 
L 621.265899 167.67613 
L 621.670659 171.141193 
L 622.480179 165.597092 
L 622.884939 176.338787 
L 623.289699 174.606255 
L 623.694459 166.116852 
L 624.099219 164.037814 
L 624.503979 155.894917 
L 624.908739 152.949613 
L 625.718258 161.61227 
L 626.123018 156.761182 
L 626.527778 165.597092 
L 626.932538 168.022636 
L 627.337298 162.651789 
L 627.742058 155.375157 
L 628.146818 153.815879 
L 628.551578 150.524069 
L 628.956338 148.618285 
L 629.361098 172.873724 
L 629.765858 172.180711 
L 630.575378 152.603107 
L 630.980138 153.469373 
L 631.384898 160.572751 
L 631.789658 170.96794 
L 632.194418 174.779509 
L 632.599178 159.359979 
L 633.003938 171.314446 
L 633.408698 175.99228 
L 633.813458 172.353965 
L 634.218218 161.61227 
L 634.622978 164.38432 
L 635.027737 170.96794 
L 635.432497 166.983117 
L 635.837257 170.621433 
L 636.242017 163.691308 
L 636.646777 129.906946 
L 637.051537 155.54841 
L 637.861057 175.299268 
L 638.265817 180.323609 
L 638.670577 166.983117 
L 639.075337 165.943599 
L 639.480097 144.806716 
L 639.884857 136.663819 
L 640.289617 146.539247 
L 640.694377 164.037814 
L 641.099137 170.96794 
L 641.503897 174.433002 
L 641.908657 165.077333 
L 642.313417 160.226245 
L 643.122937 169.755168 
L 643.932457 160.746004 
L 644.337217 159.706486 
L 644.741977 170.621433 
L 645.146736 174.259749 
L 645.551496 176.858546 
L 645.956256 173.73999 
L 646.361016 164.557573 
L 646.765776 159.533233 
L 647.170536 156.414676 
L 647.575296 158.84022 
L 647.980056 163.864561 
L 648.384816 160.226245 
L 648.789576 141.341653 
L 649.194336 154.682145 
L 649.599096 156.587929 
L 650.408616 173.913243 
L 650.813376 174.952762 
L 651.622896 175.819027 
L 652.027656 174.606255 
L 652.432416 172.007458 
L 652.837176 175.819027 
L 653.241936 177.551559 
L 653.646696 180.670115 
L 654.051456 179.803849 
L 654.456216 159.533233 
L 654.860975 159.013473 
L 655.265735 160.572751 
L 655.670495 161.439017 
L 656.075255 157.280942 
L 656.480015 154.335638 
L 656.884775 160.746004 
L 657.289535 165.250586 
L 657.694295 159.706486 
L 658.099055 163.864561 
L 658.503815 175.645774 
L 658.908575 177.031799 
L 659.313335 154.508892 
L 659.718095 142.900931 
L 660.122855 159.706486 
L 660.527615 154.855398 
L 660.932375 154.508892 
L 661.337135 172.527218 
L 661.741895 173.393483 
L 662.146655 165.597092 
L 662.551415 166.116852 
L 662.956175 158.84022 
L 663.360935 170.794686 
L 663.765695 171.660952 
L 664.170455 178.764331 
L 664.575215 178.071318 
L 664.979974 149.484551 
L 665.384734 150.524069 
L 665.789494 146.192741 
L 666.194254 155.028651 
L 666.599014 158.493714 
L 667.003774 157.800701 
L 667.408534 167.67613 
L 667.813294 169.408661 
L 668.218054 165.423839 
L 668.622814 160.226245 
L 669.027574 164.730827 
L 669.432334 171.487699 
L 670.241854 172.353965 
L 671.051374 176.685293 
L 671.456134 171.834205 
L 671.860894 146.885754 
L 672.265654 148.271779 
L 672.670414 148.618285 
L 673.075174 146.539247 
L 673.479934 147.752019 
L 673.884694 142.381172 
L 674.694213 146.365994 
L 675.098973 131.292971 
L 675.908493 154.162385 
L 676.313253 159.186726 
L 676.718013 151.910095 
L 677.122773 160.052992 
L 677.527533 159.533233 
L 678.337053 139.089362 
L 678.741813 143.94045 
L 679.146573 142.554425 
L 679.551333 127.134896 
L 679.956093 127.827909 
L 680.360853 135.970806 
L 680.765613 110.675848 
L 681.170373 127.308149 
L 681.575133 121.764049 
L 681.979893 126.441883 
L 682.384653 128.520921 
L 682.789413 115.007176 
L 683.194173 133.545262 
L 683.598933 145.153222 
L 684.003693 143.94045 
L 684.408453 150.524069 
L 684.813212 160.052992 
L 685.217972 152.949613 
L 685.622732 134.584781 
L 686.027492 156.414676 
L 686.432252 157.280942 
L 686.837012 116.219948 
L 687.241772 90.751737 
L 687.646532 105.478254 
L 688.051292 129.387187 
L 688.456052 127.654655 
L 688.860812 133.198756 
L 689.265572 133.718515 
L 689.670332 98.548129 
L 690.479852 124.01634 
L 690.884612 112.235126 
L 691.289372 116.219948 
L 691.694132 130.946465 
L 692.098892 127.827909 
L 692.503652 136.144059 
L 692.908412 151.563588 
L 693.313172 145.153222 
L 693.717932 136.144059 
L 694.122692 124.536099 
L 694.527451 125.055858 
L 694.932211 132.678996 
L 695.336971 119.685011 
L 695.741731 117.086214 
L 696.146491 124.882605 
L 696.551251 120.897783 
L 696.956011 96.98885 
L 697.360771 105.651507 
L 697.765531 121.590796 
L 698.170291 109.982836 
L 698.575051 131.985984 
L 698.979811 128.174415 
L 699.384571 115.353683 
L 699.789331 68.402083 
L 700.194091 97.335357 
L 700.194091 97.335357 
" clip-path="url(#p316b43dcdf)" style="fill: none; stroke: #1f77b4; stroke-width: 1.5; stroke-linecap: square"/>
   </g>
   <g id="patch_13">
    <path d="M 511.07 188.12 
L 511.07 12.787826 
" style="fill: none; stroke: #000000; stroke-width: 0.8; stroke-linejoin: miter; stroke-linecap: square"/>
   </g>
   <g id="patch_14">
    <path d="M 709.2 188.12 
L 709.2 12.787826 
" style="fill: none; stroke: #000000; stroke-width: 0.8; stroke-linejoin: miter; stroke-linecap: square"/>
   </g>
   <g id="patch_15">
    <path d="M 511.07 188.12 
L 709.2 188.12 
" style="fill: none; stroke: #000000; stroke-width: 0.8; stroke-linejoin: miter; stroke-linecap: square"/>
   </g>
   <g id="patch_16">
    <path d="M 511.07 12.787826 
L 709.2 12.787826 
" style="fill: none; stroke: #000000; stroke-width: 0.8; stroke-linejoin: miter; stroke-linecap: square"/>
   </g>
  </g>
 </g>
 <defs>
  <clipPath id="p52b041d4eb">
   <rect x="38.27" y="12.787826" width="198.13" height="175.332174"/>
  </clipPath>
  <clipPath id="pd2a2b7bfba">
   <rect x="274.67" y="12.787826" width="198.13" height="175.332174"/>
  </clipPath>
  <clipPath id="p316b43dcdf">
   <rect x="511.07" y="12.787826" width="198.13" height="175.332174"/>
  </clipPath>
 </defs>
</svg>
