<?xml version="1.0" encoding="utf-8" standalone="no"?>
<!DOCTYPE svg PUBLIC "-//W3C//DTD SVG 1.1//EN"
  "http://www.w3.org/Graphics/SVG/1.1/DTD/svg11.dtd">
<svg xmlns:xlink="http://www.w3.org/1999/xlink" width="460.8pt" height="345.6pt" viewBox="0 0 460.8 345.6" xmlns="http://www.w3.org/2000/svg" version="1.1">
 <metadata>
  <rdf:RDF xmlns:dc="http://purl.org/dc/elements/1.1/" xmlns:cc="http://creativecommons.org/ns#" xmlns:rdf="http://www.w3.org/1999/02/22-rdf-syntax-ns#">
   <cc:Work>
    <dc:type rdf:resource="http://purl.org/dc/dcmitype/StillImage"/>
    <dc:date>2022-12-21T15:07:54.630318</dc:date>
    <dc:format>image/svg+xml</dc:format>
    <dc:creator>
     <cc:Agent>
      <dc:title>Matplotlib v3.6.2, https://matplotlib.org/</dc:title>
     </cc:Agent>
    </dc:creator>
   </cc:Work>
  </rdf:RDF>
 </metadata>
 <defs>
  <style type="text/css">*{stroke-linejoin: round; stroke-linecap: butt}</style>
 </defs>
 <g id="figure_1">
  <g id="patch_1">
   <path d="M 0 345.6 
L 460.8 345.6 
L 460.8 0 
L 0 0 
z
" style="fill: #ffffff"/>
  </g>
  <g id="axes_1">
   <g id="patch_2">
    <path d="M 57.6 307.584 
L 414.72 307.584 
L 414.72 41.472 
L 57.6 41.472 
z
" style="fill: #ffffff"/>
   </g>
   <g id="matplotlib.axis_1">
    <g id="xtick_1">
     <g id="line2d_1">
      <defs>
       <path id="m10b11c5a57" d="M 0 0 
L 0 3.5 
" style="stroke: #000000; stroke-width: 0.8"/>
      </defs>
      <g>
       <use xlink:href="#m10b11c5a57" x="73.832727" y="307.584" style="stroke: #000000; stroke-width: 0.8"/>
      </g>
     </g>
     <g id="text_1">
      <!-- 0 -->
      <g transform="translate(70.651477 322.182437) scale(0.1 -0.1)">
       <defs>
        <path id="DejaVuSans-30" d="M 2034 4250 
Q 1547 4250 1301 3770 
Q 1056 3291 1056 2328 
Q 1056 1369 1301 889 
Q 1547 409 2034 409 
Q 2525 409 2770 889 
Q 3016 1369 3016 2328 
Q 3016 3291 2770 3770 
Q 2525 4250 2034 4250 
z
M 2034 4750 
Q 2819 4750 3233 4129 
Q 3647 3509 3647 2328 
Q 3647 1150 3233 529 
Q 2819 -91 2034 -91 
Q 1250 -91 836 529 
Q 422 1150 422 2328 
Q 422 3509 836 4129 
Q 1250 4750 2034 4750 
z
" transform="scale(0.015625)"/>
       </defs>
       <use xlink:href="#DejaVuSans-30"/>
      </g>
     </g>
    </g>
    <g id="xtick_2">
     <g id="line2d_2">
      <g>
       <use xlink:href="#m10b11c5a57" x="146.788805" y="307.584" style="stroke: #000000; stroke-width: 0.8"/>
      </g>
     </g>
     <g id="text_2">
      <!-- 100 -->
      <g transform="translate(137.245055 322.182437) scale(0.1 -0.1)">
       <defs>
        <path id="DejaVuSans-31" d="M 794 531 
L 1825 531 
L 1825 4091 
L 703 3866 
L 703 4441 
L 1819 4666 
L 2450 4666 
L 2450 531 
L 3481 531 
L 3481 0 
L 794 0 
L 794 531 
z
" transform="scale(0.015625)"/>
       </defs>
       <use xlink:href="#DejaVuSans-31"/>
       <use xlink:href="#DejaVuSans-30" x="63.623047"/>
       <use xlink:href="#DejaVuSans-30" x="127.246094"/>
      </g>
     </g>
    </g>
    <g id="xtick_3">
     <g id="line2d_3">
      <g>
       <use xlink:href="#m10b11c5a57" x="219.744883" y="307.584" style="stroke: #000000; stroke-width: 0.8"/>
      </g>
     </g>
     <g id="text_3">
      <!-- 200 -->
      <g transform="translate(210.201133 322.182437) scale(0.1 -0.1)">
       <defs>
        <path id="DejaVuSans-32" d="M 1228 531 
L 3431 531 
L 3431 0 
L 469 0 
L 469 531 
Q 828 903 1448 1529 
Q 2069 2156 2228 2338 
Q 2531 2678 2651 2914 
Q 2772 3150 2772 3378 
Q 2772 3750 2511 3984 
Q 2250 4219 1831 4219 
Q 1534 4219 1204 4116 
Q 875 4013 500 3803 
L 500 4441 
Q 881 4594 1212 4672 
Q 1544 4750 1819 4750 
Q 2544 4750 2975 4387 
Q 3406 4025 3406 3419 
Q 3406 3131 3298 2873 
Q 3191 2616 2906 2266 
Q 2828 2175 2409 1742 
Q 1991 1309 1228 531 
z
" transform="scale(0.015625)"/>
       </defs>
       <use xlink:href="#DejaVuSans-32"/>
       <use xlink:href="#DejaVuSans-30" x="63.623047"/>
       <use xlink:href="#DejaVuSans-30" x="127.246094"/>
      </g>
     </g>
    </g>
    <g id="xtick_4">
     <g id="line2d_4">
      <g>
       <use xlink:href="#m10b11c5a57" x="292.70096" y="307.584" style="stroke: #000000; stroke-width: 0.8"/>
      </g>
     </g>
     <g id="text_4">
      <!-- 300 -->
      <g transform="translate(283.15721 322.182437) scale(0.1 -0.1)">
       <defs>
        <path id="DejaVuSans-33" d="M 2597 2516 
Q 3050 2419 3304 2112 
Q 3559 1806 3559 1356 
Q 3559 666 3084 287 
Q 2609 -91 1734 -91 
Q 1441 -91 1130 -33 
Q 819 25 488 141 
L 488 750 
Q 750 597 1062 519 
Q 1375 441 1716 441 
Q 2309 441 2620 675 
Q 2931 909 2931 1356 
Q 2931 1769 2642 2001 
Q 2353 2234 1838 2234 
L 1294 2234 
L 1294 2753 
L 1863 2753 
Q 2328 2753 2575 2939 
Q 2822 3125 2822 3475 
Q 2822 3834 2567 4026 
Q 2313 4219 1838 4219 
Q 1578 4219 1281 4162 
Q 984 4106 628 3988 
L 628 4550 
Q 988 4650 1302 4700 
Q 1616 4750 1894 4750 
Q 2613 4750 3031 4423 
Q 3450 4097 3450 3541 
Q 3450 3153 3228 2886 
Q 3006 2619 2597 2516 
z
" transform="scale(0.015625)"/>
       </defs>
       <use xlink:href="#DejaVuSans-33"/>
       <use xlink:href="#DejaVuSans-30" x="63.623047"/>
       <use xlink:href="#DejaVuSans-30" x="127.246094"/>
      </g>
     </g>
    </g>
    <g id="xtick_5">
     <g id="line2d_5">
      <g>
       <use xlink:href="#m10b11c5a57" x="365.657038" y="307.584" style="stroke: #000000; stroke-width: 0.8"/>
      </g>
     </g>
     <g id="text_5">
      <!-- 400 -->
      <g transform="translate(356.113288 322.182437) scale(0.1 -0.1)">
       <defs>
        <path id="DejaVuSans-34" d="M 2419 4116 
L 825 1625 
L 2419 1625 
L 2419 4116 
z
M 2253 4666 
L 3047 4666 
L 3047 1625 
L 3713 1625 
L 3713 1100 
L 3047 1100 
L 3047 0 
L 2419 0 
L 2419 1100 
L 313 1100 
L 313 1709 
L 2253 4666 
z
" transform="scale(0.015625)"/>
       </defs>
       <use xlink:href="#DejaVuSans-34"/>
       <use xlink:href="#DejaVuSans-30" x="63.623047"/>
       <use xlink:href="#DejaVuSans-30" x="127.246094"/>
      </g>
     </g>
    </g>
   </g>
   <g id="matplotlib.axis_2">
    <g id="ytick_1">
     <g id="line2d_6">
      <defs>
       <path id="m4821e74ee4" d="M 0 0 
L -3.5 0 
" style="stroke: #000000; stroke-width: 0.8"/>
      </defs>
      <g>
       <use xlink:href="#m4821e74ee4" x="57.6" y="258.488471" style="stroke: #000000; stroke-width: 0.8"/>
      </g>
     </g>
     <g id="text_6">
      <!-- 2 -->
      <g transform="translate(44.2375 262.287689) scale(0.1 -0.1)">
       <use xlink:href="#DejaVuSans-32"/>
      </g>
     </g>
    </g>
    <g id="ytick_2">
     <g id="line2d_7">
      <g>
       <use xlink:href="#m4821e74ee4" x="57.6" y="201.566118" style="stroke: #000000; stroke-width: 0.8"/>
      </g>
     </g>
     <g id="text_7">
      <!-- 4 -->
      <g transform="translate(44.2375 205.365336) scale(0.1 -0.1)">
       <use xlink:href="#DejaVuSans-34"/>
      </g>
     </g>
    </g>
    <g id="ytick_3">
     <g id="line2d_8">
      <g>
       <use xlink:href="#m4821e74ee4" x="57.6" y="144.643765" style="stroke: #000000; stroke-width: 0.8"/>
      </g>
     </g>
     <g id="text_8">
      <!-- 6 -->
      <g transform="translate(44.2375 148.442983) scale(0.1 -0.1)">
       <defs>
        <path id="DejaVuSans-36" d="M 2113 2584 
Q 1688 2584 1439 2293 
Q 1191 2003 1191 1497 
Q 1191 994 1439 701 
Q 1688 409 2113 409 
Q 2538 409 2786 701 
Q 3034 994 3034 1497 
Q 3034 2003 2786 2293 
Q 2538 2584 2113 2584 
z
M 3366 4563 
L 3366 3988 
Q 3128 4100 2886 4159 
Q 2644 4219 2406 4219 
Q 1781 4219 1451 3797 
Q 1122 3375 1075 2522 
Q 1259 2794 1537 2939 
Q 1816 3084 2150 3084 
Q 2853 3084 3261 2657 
Q 3669 2231 3669 1497 
Q 3669 778 3244 343 
Q 2819 -91 2113 -91 
Q 1303 -91 875 529 
Q 447 1150 447 2328 
Q 447 3434 972 4092 
Q 1497 4750 2381 4750 
Q 2619 4750 2861 4703 
Q 3103 4656 3366 4563 
z
" transform="scale(0.015625)"/>
       </defs>
       <use xlink:href="#DejaVuSans-36"/>
      </g>
     </g>
    </g>
    <g id="ytick_4">
     <g id="line2d_9">
      <g>
       <use xlink:href="#m4821e74ee4" x="57.6" y="87.721412" style="stroke: #000000; stroke-width: 0.8"/>
      </g>
     </g>
     <g id="text_9">
      <!-- 8 -->
      <g transform="translate(44.2375 91.520631) scale(0.1 -0.1)">
       <defs>
        <path id="DejaVuSans-38" d="M 2034 2216 
Q 1584 2216 1326 1975 
Q 1069 1734 1069 1313 
Q 1069 891 1326 650 
Q 1584 409 2034 409 
Q 2484 409 2743 651 
Q 3003 894 3003 1313 
Q 3003 1734 2745 1975 
Q 2488 2216 2034 2216 
z
M 1403 2484 
Q 997 2584 770 2862 
Q 544 3141 544 3541 
Q 544 4100 942 4425 
Q 1341 4750 2034 4750 
Q 2731 4750 3128 4425 
Q 3525 4100 3525 3541 
Q 3525 3141 3298 2862 
Q 3072 2584 2669 2484 
Q 3125 2378 3379 2068 
Q 3634 1759 3634 1313 
Q 3634 634 3220 271 
Q 2806 -91 2034 -91 
Q 1263 -91 848 271 
Q 434 634 434 1313 
Q 434 1759 690 2068 
Q 947 2378 1403 2484 
z
M 1172 3481 
Q 1172 3119 1398 2916 
Q 1625 2713 2034 2713 
Q 2441 2713 2670 2916 
Q 2900 3119 2900 3481 
Q 2900 3844 2670 4047 
Q 2441 4250 2034 4250 
Q 1625 4250 1398 4047 
Q 1172 3844 1172 3481 
z
" transform="scale(0.015625)"/>
       </defs>
       <use xlink:href="#DejaVuSans-38"/>
      </g>
     </g>
    </g>
   </g>
   <g id="line2d_10">
    <path d="M 73.832727 269.588329 
L 74.562288 268.165271 
L 75.291849 268.449882 
L 76.02141 168.551153 
L 76.75097 191.320094 
L 77.480531 176.235671 
L 78.210092 165.135812 
L 78.939653 183.066353 
L 79.669213 225.758118 
L 80.398774 164.281976 
L 81.857896 241.696376 
L 82.587457 230.596518 
L 83.317017 217.504376 
L 84.046578 211.242918 
L 84.776139 210.104471 
L 85.5057 238.281035 
L 86.23526 251.9424 
L 86.964821 270.726776 
L 87.694382 233.727247 
L 88.423943 158.874353 
L 89.153504 176.804894 
L 89.883064 175.097224 
L 90.612625 195.304659 
L 92.071747 214.658259 
L 92.801307 119.028706 
L 93.530868 133.543906 
L 94.260429 200.712282 
L 94.98999 201.850729 
L 95.719551 186.481694 
L 96.449111 183.350965 
L 97.178672 163.143529 
L 97.908233 146.351435 
L 98.637794 190.750871 
L 99.367354 201.850729 
L 100.826476 249.380894 
L 101.556037 213.2352 
L 103.015158 249.665506 
L 103.744719 220.919718 
L 104.47428 208.966024 
L 105.203841 226.611953 
L 105.933401 224.904282 
L 106.662962 236.573365 
L 107.392523 224.904282 
L 108.122084 201.281506 
L 108.851645 208.112188 
L 109.581205 224.335059 
L 110.310766 267.311435 
L 111.040327 194.166212 
L 111.769888 219.212047 
L 112.499448 231.165741 
L 113.229009 189.0432 
L 113.95857 208.112188 
L 115.417692 183.635576 
L 116.147252 192.458541 
M 117.606374 91.421365 
L 118.335935 129.274729 
L 119.065495 206.404518 
L 119.795056 220.635106 
L 120.524617 220.065882 
L 121.254178 238.281035 
L 121.983739 186.766306 
L 122.713299 163.428141 
L 123.44286 160.866635 
L 124.172421 192.458541 
L 124.901982 231.450353 
L 125.631542 193.027765 
L 126.361103 189.897035 
L 127.090664 205.266071 
L 127.820225 242.2656 
L 128.549785 160.582024 
L 129.279346 182.781741 
L 130.008907 217.219765 
L 130.738468 275.280565 
L 131.468029 231.734965 
L 132.197589 218.358212 
L 132.92715 183.920188 
L 133.656711 195.589271 
L 134.386272 183.920188 
L 135.115832 225.473506 
L 135.845393 227.181176 
L 137.304515 153.182118 
L 138.034076 148.059106 
L 138.763636 137.813082 
L 139.493197 124.720941 
L 140.222758 149.482165 
L 140.952319 137.528471 
L 141.681879 137.528471 
M 143.141001 56.983341 
L 143.870562 111.344188 
L 144.600123 199.289224 
L 145.329683 220.065882 
L 146.059244 222.912 
L 146.788805 139.520753 
L 147.518366 134.682353 
L 148.247926 212.096753 
L 148.977487 250.519341 
L 149.707048 230.311906 
L 150.436609 237.711812 
L 151.16617 235.150306 
L 151.89573 237.4272 
M 153.354852 132.690071 
L 154.084413 120.451765 
L 154.813973 123.297882 
L 155.543534 172.251106 
L 156.273095 256.7808 
L 157.002656 229.458071 
L 157.732217 231.165741 
L 158.461777 238.281035 
L 159.920899 225.473506 
L 160.65046 255.926965 
L 161.38002 280.118965 
L 162.109581 273.288282 
L 162.839142 272.719059 
L 163.568703 272.719059 
L 164.298264 103.375059 
L 165.027824 118.459482 
L 165.757385 178.512565 
L 166.486946 176.520282 
L 167.216507 188.189365 
L 167.946067 222.912 
L 168.675628 188.758588 
L 169.405189 180.220235 
L 170.13475 194.166212 
L 170.864311 205.550682 
L 171.593871 65.521694 
L 172.323432 54.706447 
L 173.052993 183.635576 
L 173.782554 181.358682 
L 174.512114 163.428141 
L 175.241675 190.181647 
L 175.971236 149.766776 
L 176.700797 152.328282 
L 177.430358 167.128094 
L 178.159918 169.974212 
L 178.889479 199.004612 
L 179.61904 195.589271 
L 180.348601 183.920188 
L 181.078161 186.481694 
L 181.807722 193.8816 
L 182.537283 183.920188 
L 183.266844 245.965553 
L 183.996404 237.142588 
L 184.725965 162.574306 
L 185.455526 210.104471 
L 186.185087 202.989176 
L 187.644208 258.488471 
L 188.373769 261.903812 
L 189.10333 266.4576 
L 189.832891 244.257882 
L 190.562451 251.373176 
L 191.292012 255.926965 
L 192.021573 256.496188 
L 192.751134 238.565647 
L 193.480695 240.273318 
L 194.210255 227.465788 
L 194.939816 234.581082 
L 195.669377 195.304659 
L 196.398938 146.636047 
L 197.128498 164.281976 
L 197.858059 117.605647 
L 198.58762 187.335529 
L 199.317181 217.788988 
L 200.046742 223.765835 
L 200.776302 234.865694 
L 201.505863 266.742212 
L 202.235424 274.711341 
L 202.964985 265.603765 
L 203.694545 243.973271 
L 204.424106 243.404047 
L 205.153667 261.049976 
L 205.883228 228.888847 
L 206.612789 225.473506 
L 208.07191 253.080847 
L 208.801471 245.396329 
L 209.531032 253.365459 
L 210.260592 262.757647 
L 210.990153 213.2352 
L 212.449275 242.834824 
L 213.178836 263.611482 
L 213.908396 221.488941 
L 214.637957 234.581082 
L 215.367518 264.465318 
L 216.097079 268.734494 
L 216.826639 246.819388 
L 217.5562 254.503906 
L 218.285761 257.634635 
L 219.015322 253.934682 
L 219.744883 271.296 
L 220.474443 243.119435 
L 221.204004 256.211576 
L 221.933565 234.581082 
L 222.663126 233.727247 
L 223.392686 146.636047 
L 224.122247 183.920188 
L 224.851808 237.711812 
L 225.581369 248.242447 
L 226.31093 243.404047 
L 227.04049 229.173459 
L 227.770051 193.312376 
L 228.499612 207.827576 
L 229.229173 241.127153 
L 229.958733 154.605176 
L 230.688294 190.466259 
L 231.417855 236.573365 
L 232.147416 238.565647 
L 232.876977 189.897035 
L 233.606537 176.235671 
L 234.336098 229.458071 
L 235.065659 263.611482 
L 235.79522 275.565176 
L 236.52478 279.834353 
L 237.254341 286.665035 
L 237.983902 259.911529 
L 238.713463 263.042259 
L 239.443023 266.742212 
L 240.172584 265.888376 
L 240.902145 248.527059 
L 241.631706 265.319153 
L 242.361267 240.273318 
L 243.090827 155.459012 
L 243.820388 165.135812 
L 244.549949 204.696847 
L 245.27951 236.004141 
L 246.00907 228.604235 
L 246.738631 224.619671 
L 247.468192 262.188424 
L 248.197753 255.357741 
L 248.927314 261.903812 
L 249.656874 253.934682 
L 250.386435 247.388612 
L 251.115996 288.657318 
L 251.845557 283.818918 
L 253.304678 291.788047 
L 254.034239 286.665035 
L 254.7638 257.919247 
L 255.493361 249.096282 
L 256.222921 264.180706 
L 256.952482 275.849788 
L 257.682043 248.811671 
L 258.411604 247.957835 
L 259.141164 278.980518 
L 259.870725 274.426729 
L 260.600286 268.734494 
L 261.329847 234.865694 
L 262.059408 250.803953 
L 262.788968 226.327341 
L 263.518529 247.388612 
L 264.24809 214.373647 
L 264.977651 227.7504 
L 265.707211 259.626918 
L 266.436772 267.311435 
L 267.166333 229.742682 
L 267.895894 246.819388 
L 268.625455 216.081318 
L 269.355015 220.919718 
L 270.084576 193.8816 
L 270.814137 250.519341 
L 271.543698 272.149835 
L 273.002819 215.796706 
L 273.73238 245.111718 
L 274.461941 255.073129 
L 275.191502 270.157553 
L 275.921062 264.749929 
L 276.650623 257.065412 
L 277.380184 264.465318 
L 278.109745 286.095812 
L 278.839305 267.596047 
L 279.568866 237.4272 
L 280.298427 254.219294 
L 281.027988 275.849788 
L 281.757549 244.257882 
L 282.487109 245.111718 
L 283.21667 212.096753 
L 283.946231 184.2048 
L 284.675792 199.858447 
L 285.405352 246.250165 
L 286.134913 269.019106 
L 286.864474 282.395859 
L 287.594035 260.196141 
L 288.323596 232.873412 
L 289.053156 192.458541 
L 289.782717 133.259294 
L 290.512278 227.465788 
L 291.241839 234.865694 
L 291.971399 273.857506 
L 292.70096 278.695906 
L 293.430521 250.234729 
L 294.160082 250.803953 
L 294.889642 266.742212 
L 295.619203 273.857506 
L 296.348764 264.749929 
L 297.078325 230.596518 
L 297.807886 237.4272 
L 298.537446 264.749929 
L 299.267007 286.095812 
L 299.996568 290.6496 
L 300.726129 264.180706 
L 301.455689 258.773082 
L 302.18525 254.503906 
L 303.644372 236.573365 
L 304.373933 249.950118 
L 305.103493 239.134871 
L 305.833054 223.481224 
L 306.562615 232.873412 
L 307.292176 253.650071 
L 308.021736 249.665506 
L 308.751297 274.426729 
L 309.480858 273.857506 
L 310.210419 282.965082 
L 311.66954 275.280565 
L 312.399101 268.165271 
L 313.128662 269.588329 
L 313.858223 276.419012 
L 314.587783 295.488 
L 315.317344 263.326871 
L 316.046905 237.996424 
L 316.776466 229.173459 
L 317.506027 243.688659 
L 318.235587 208.112188 
L 318.965148 225.188894 
L 319.694709 158.305129 
L 321.15383 255.357741 
L 321.883391 233.727247 
L 322.612952 239.419482 
L 323.342513 274.426729 
L 324.072074 255.073129 
L 325.531195 210.104471 
L 326.260756 240.557929 
L 326.990317 229.742682 
L 327.719877 227.465788 
L 328.449438 258.773082 
L 329.178999 272.434447 
L 329.90856 250.803953 
L 330.638121 258.773082 
L 331.367681 256.7808 
L 332.097242 263.326871 
L 333.556364 290.080376 
L 334.285924 215.512094 
L 335.015485 200.996894 
L 335.745046 138.382306 
L 337.204168 224.335059 
L 337.933728 255.642353 
L 338.663289 251.657788 
L 339.39285 245.680941 
L 340.122411 267.596047 
L 340.851971 254.503906 
L 341.581532 248.811671 
L 343.040654 275.849788 
L 343.770215 274.426729 
L 344.499775 277.557459 
L 345.229336 286.665035 
L 345.958897 288.941929 
L 346.688458 243.973271 
L 347.418018 165.989647 
L 348.87714 229.173459 
L 349.606701 219.781271 
L 350.336261 183.066353 
L 351.065822 176.520282 
L 351.795383 227.181176 
L 352.524944 145.782212 
L 353.254505 169.974212 
L 353.984065 205.266071 
L 354.713626 214.942871 
L 355.443187 246.534776 
L 356.172748 231.165741 
L 356.902308 248.811671 
L 357.631869 239.419482 
L 358.36143 222.912 
L 359.090991 183.066353 
L 359.820552 225.473506 
L 360.550112 165.420424 
L 361.279673 165.420424 
L 362.009234 196.727718 
L 362.738795 155.459012 
L 363.468355 146.920659 
L 364.197916 167.697318 
L 364.927477 169.6896 
L 365.657038 160.582024 
L 366.386599 160.297412 
L 367.116159 152.612894 
L 367.84572 185.343247 
L 368.575281 208.3968 
L 369.304842 138.382306 
L 370.034402 228.888847 
L 370.763963 245.396329 
L 372.223085 172.535718 
L 372.952646 228.604235 
L 373.682206 167.981929 
L 374.411767 135.536188 
L 375.141328 116.751812 
L 375.870889 140.374588 
L 376.600449 168.835765 
L 377.33001 170.828047 
L 378.059571 188.473976 
L 378.789132 182.212518 
L 379.518693 90.852141 
L 380.248253 99.959718 
L 380.977814 172.820329 
L 381.707375 153.182118 
L 382.436936 152.612894 
L 383.166496 171.397271 
L 383.896057 193.312376 
L 384.625618 210.958306 
L 385.355179 221.204329 
L 386.08474 186.766306 
L 386.8143 173.104941 
L 387.543861 123.867106 
L 388.273422 180.504847 
L 389.002983 198.435388 
L 389.732543 117.036424 
L 390.462104 149.197553 
L 391.191665 173.389553 
L 391.921226 135.8208 
L 392.650787 111.913412 
L 393.380347 114.474918 
L 394.109908 169.120376 
L 394.839469 132.405459 
L 395.56903 182.212518 
L 396.29859 150.905224 
L 397.028151 126.713224 
L 397.757712 53.568 
L 398.487273 100.813553 
L 398.487273 100.813553 
" clip-path="url(#p16d00c775f)" style="fill: none; stroke: #1f77b4; stroke-width: 1.5; stroke-linecap: square"/>
   </g>
   <g id="patch_3">
    <path d="M 57.6 307.584 
L 57.6 41.472 
" style="fill: none; stroke: #000000; stroke-width: 0.8; stroke-linejoin: miter; stroke-linecap: square"/>
   </g>
   <g id="patch_4">
    <path d="M 414.72 307.584 
L 414.72 41.472 
" style="fill: none; stroke: #000000; stroke-width: 0.8; stroke-linejoin: miter; stroke-linecap: square"/>
   </g>
   <g id="patch_5">
    <path d="M 57.6 307.584 
L 414.72 307.584 
" style="fill: none; stroke: #000000; stroke-width: 0.8; stroke-linejoin: miter; stroke-linecap: square"/>
   </g>
   <g id="patch_6">
    <path d="M 57.6 41.472 
L 414.72 41.472 
" style="fill: none; stroke: #000000; stroke-width: 0.8; stroke-linejoin: miter; stroke-linecap: square"/>
   </g>
  </g>
 </g>
 <defs>
  <clipPath id="p16d00c775f">
   <rect x="57.6" y="41.472" width="357.12" height="266.112"/>
  </clipPath>
 </defs>
</svg>
